<?xml version="1.0" encoding="utf-8" standalone="no"?>
<!DOCTYPE svg PUBLIC "-//W3C//DTD SVG 1.1//EN"
  "http://www.w3.org/Graphics/SVG/1.1/DTD/svg11.dtd">
<svg xmlns:xlink="http://www.w3.org/1999/xlink" width="82.32pt" height="66.48pt" viewBox="0 0 82.32 66.48" xmlns="http://www.w3.org/2000/svg" version="1.1">
 <metadata>
  <rdf:RDF xmlns:dc="http://purl.org/dc/elements/1.1/" xmlns:cc="http://creativecommons.org/ns#" xmlns:rdf="http://www.w3.org/1999/02/22-rdf-syntax-ns#">
   <cc:Work>
    <dc:type rdf:resource="http://purl.org/dc/dcmitype/StillImage"/>
    <dc:date>2026-07-20T16:22:36.862986</dc:date>
    <dc:format>image/svg+xml</dc:format>
    <dc:creator>
     <cc:Agent>
      <dc:title>Matplotlib v3.10.7, https://matplotlib.org/</dc:title>
     </cc:Agent>
    </dc:creator>
   </cc:Work>
  </rdf:RDF>
 </metadata>
 <defs>
  <style type="text/css">*{stroke-linejoin: round; stroke-linecap: butt}</style>
 </defs>
 <g id="figure_1">
  <g id="patch_1">
   <path d="M 0 66.48
L 82.32 66.48
L 82.32 0
L 0 0
z
" style="fill: #ffffff"/>
  </g>
  <g id="axes_1">
   <g id="patch_2">
    <path d="M 17.28 54.72
L 77.28 54.72
L 77.28 4.32
L 17.28 4.32
z
" style="fill: #ffffff"/>
   </g>
   <g id="line2d_1">
    <path d="M 17.28 38.586984
L 77.28 50.476667
L 77.28 50.476667
" clip-path="url(#pdd88a5c23e)" style="fill: none; stroke: #0072b2; stroke-width: 0.75; stroke-linecap: square"/>
   </g>
   <g id="line2d_2">
    <path d="M 17.28 12.05693
L 77.28 51.452882
L 77.28 51.452882
" clip-path="url(#pdd88a5c23e)" style="fill: none; stroke: #e5a50a; stroke-width: 0.75; stroke-linecap: square"/>
   </g>
   <g id="line2d_3">
    <path d="M 17.28 11.765241
L 77.28 47.304867
L 77.28 47.304867
" clip-path="url(#pdd88a5c23e)" style="fill: none; stroke: #69a832; stroke-width: 0.75; stroke-linecap: square"/>
   </g>
   <g id="line2d_4">
    <path d="M 17.28 11.50999
L 77.28 45.101135
L 77.28 45.101135
" clip-path="url(#pdd88a5c23e)" style="fill: none; stroke: #b2183b; stroke-width: 0.75; stroke-linecap: square"/>
   </g>
   <g id="line2d_5">
    <path d="M 17.28 11.253294
L 77.28 43.505276
L 77.28 43.505276
" clip-path="url(#pdd88a5c23e)" style="fill: none; stroke: #d45a16; stroke-width: 0.75; stroke-linecap: square"/>
   </g>
   <g id="line2d_6">
    <path d="M 17.28 11.127979
L 77.28 41.989812
L 77.28 41.989812
" clip-path="url(#pdd88a5c23e)" style="fill: none; stroke: #7a3294; stroke-width: 0.75; stroke-linecap: square"/>
   </g>
   <g id="line2d_7">
    <path d="M 17.28 11.157569
L 77.28 40.06638
L 77.28 40.06638
" clip-path="url(#pdd88a5c23e)" style="fill: none; stroke: #46b2d9; stroke-width: 0.75; stroke-linecap: square"/>
   </g>
   <g id="matplotlib.axis_1">
    <g id="xtick_1">
     <g id="line2d_8">
      <defs>
       <path id="m32e7a59c02" d="M 0 0
L 0 1.7
" style="stroke: #000000; stroke-width: 0.42"/>
      </defs>
      <g>
       <use xlink:href="#m32e7a59c02" x="17.28" y="54.72" style="stroke: #000000; stroke-width: 0.42"/>
      </g>
     </g>
     <g id="text_1">
      <!-- $0$ -->
      <g transform="translate(16.205 60.805813)">
       <text>
        <tspan x="0" y="-0.296875" style="font-size: 4.3px; font-family: 'STIXGeneral'">0</tspan>
       </text>
      </g>
     </g>
    </g>
    <g id="xtick_2">
     <g id="line2d_9">
      <g>
       <use xlink:href="#m32e7a59c02" x="77.28" y="54.72" style="stroke: #000000; stroke-width: 0.42"/>
      </g>
     </g>
     <g id="text_2">
      <!-- $0.06$ -->
      <g transform="translate(73.5175 60.805813)">
       <text>
        <tspan x="0" y="-0.265625" style="font-size: 4.3px; font-family: 'STIXGeneral'">0</tspan>
        <tspan x="2.124985" y="-0.265625" style="font-size: 4.3px; font-family: 'STIXGeneral'">.</tspan>
        <tspan x="3.187469" y="-0.265625" style="font-size: 4.3px; font-family: 'STIXGeneral'">0</tspan>
        <tspan x="5.312454" y="-0.265625" style="font-size: 4.3px; font-family: 'STIXGeneral'">6</tspan>
       </text>
      </g>
     </g>
    </g>
    <g id="text_3">
     <!-- $1/L$ -->
     <g transform="translate(43.93 63.197484)">
      <text>
       <tspan x="0" y="-0.625" style="font-size: 5px; font-family: 'STIXGeneral'">1</tspan>
       <tspan x="2.499985" y="-0.625" style="font-size: 5px; font-family: 'STIXGeneral'">/</tspan>
       <tspan x="3.889984" y="-0.625" style="font-style: italic; font-size: 5px; font-family: 'STIXGeneral'">L</tspan>
      </text>
     </g>
    </g>
   </g>
   <g id="matplotlib.axis_2">
    <g id="ytick_1">
     <g id="line2d_10">
      <defs>
       <path id="m8b35c1890b" d="M 0 0
L -1.7 0
" style="stroke: #000000; stroke-width: 0.42"/>
      </defs>
      <g>
       <use xlink:href="#m8b35c1890b" x="17.28" y="54.72" style="stroke: #000000; stroke-width: 0.42"/>
      </g>
     </g>
     <g id="text_4">
      <!-- $0$ -->
      <g transform="translate(12.03 56.212906)">
       <text>
        <tspan x="0" y="-0.296875" style="font-size: 4.3px; font-family: 'STIXGeneral'">0</tspan>
       </text>
      </g>
     </g>
    </g>
    <g id="ytick_2">
     <g id="line2d_11">
      <g>
       <use xlink:href="#m8b35c1890b" x="17.28" y="4.32" style="stroke: #000000; stroke-width: 0.42"/>
      </g>
     </g>
     <g id="text_5">
      <!-- $0.3$ -->
      <g transform="translate(8.805 5.812906)">
       <text>
        <tspan x="0" y="-0.296875" style="font-size: 4.3px; font-family: 'STIXGeneral'">0</tspan>
        <tspan x="2.124985" y="-0.296875" style="font-size: 4.3px; font-family: 'STIXGeneral'">.</tspan>
        <tspan x="3.187469" y="-0.296875" style="font-size: 4.3px; font-family: 'STIXGeneral'">3</tspan>
       </text>
      </g>
     </g>
    </g>
    <g id="text_6">
     <!-- $|\phi(E)-\Phi(E)|$ -->
     <g transform="translate(10.535469 42.82) rotate(-90)">
      <text>
       <tspan x="0" y="-0.578125" style="font-size: 5px; font-family: 'STIXGeneral'">|</tspan>
       <tspan x="4.134995" y="-0.578125" style="font-size: 5px; font-family: 'STIXGeneral'">(</tspan>
       <tspan x="8.85498" y="-0.578125" style="font-size: 5px; font-family: 'STIXGeneral'">)</tspan>
       <tspan x="11.241971" y="-0.578125" style="font-size: 5px; font-family: 'STIXGeneral'">−</tspan>
       <tspan x="15.388956" y="-0.578125" style="font-size: 5px; font-family: 'STIXGeneral'">Φ</tspan>
       <tspan x="19.203943" y="-0.578125" style="font-size: 5px; font-family: 'STIXGeneral'">(</tspan>
       <tspan x="23.923929" y="-0.578125" style="font-size: 5px; font-family: 'STIXGeneral'">)</tspan>
       <tspan x="25.588922" y="-0.578125" style="font-size: 5px; font-family: 'STIXGeneral'">|</tspan>
       <tspan x="1" y="-0.578125" style="font-style: italic; font-size: 5px; font-family: 'STIXGeneral'">ϕ</tspan>
       <tspan x="5.799988" y="-0.578125" style="font-style: italic; font-size: 5px; font-family: 'STIXGeneral'">E</tspan>
       <tspan x="20.868936" y="-0.578125" style="font-style: italic; font-size: 5px; font-family: 'STIXGeneral'">E</tspan>
      </text>
     </g>
    </g>
   </g>
   <g id="patch_3">
    <path d="M 17.28 54.72
L 17.28 4.32
" style="fill: none; stroke: #000000; stroke-width: 0.42; stroke-linejoin: miter; stroke-linecap: square"/>
   </g>
   <g id="patch_4">
    <path d="M 77.28 54.72
L 77.28 4.32
" style="fill: none; stroke: #000000; stroke-width: 0.42; stroke-linejoin: miter; stroke-linecap: square"/>
   </g>
   <g id="patch_5">
    <path d="M 17.28 54.72
L 77.28 54.72
" style="fill: none; stroke: #000000; stroke-width: 0.42; stroke-linejoin: miter; stroke-linecap: square"/>
   </g>
   <g id="patch_6">
    <path d="M 17.28 4.32
L 77.28 4.32
" style="fill: none; stroke: #000000; stroke-width: 0.42; stroke-linejoin: miter; stroke-linecap: square"/>
   </g>
   <g id="PathCollection_1">
    <defs>
     <path id="m39191ffc1f" d="M 0 1
C 0.265203 1 0.51958 0.894634 0.707107 0.707107
C 0.894634 0.51958 1 0.265203 1 0
C 1 -0.265203 0.894634 -0.51958 0.707107 -0.707107
C 0.51958 -0.894634 0.265203 -1 0 -1
C -0.265203 -1 -0.51958 -0.894634 -0.707107 -0.707107
C -0.894634 -0.51958 -1 -0.265203 -1 0
C -1 0.265203 -0.894634 0.51958 -0.707107 0.707107
C -0.51958 0.894634 -0.265203 1 0 1
z
"/>
    </defs>
    <g clip-path="url(#pdd88a5c23e)">
     <use xlink:href="#m39191ffc1f" x="50.613333" y="45.100126" style="fill: #0072b2"/>
     <use xlink:href="#m39191ffc1f" x="46.691765" y="44.327006" style="fill: #0072b2"/>
     <use xlink:href="#m39191ffc1f" x="43.595789" y="43.739882" style="fill: #0072b2"/>
     <use xlink:href="#m39191ffc1f" x="41.089524" y="43.276361" style="fill: #0072b2"/>
     <use xlink:href="#m39191ffc1f" x="39.01913" y="42.900847" style="fill: #0072b2"/>
     <use xlink:href="#m39191ffc1f" x="37.28" y="42.588241" style="fill: #0072b2"/>
     <use xlink:href="#m39191ffc1f" x="35.461818" y="42.273466" style="fill: #0072b2"/>
     <use xlink:href="#m39191ffc1f" x="33.946667" y="42.020821" style="fill: #0072b2"/>
     <use xlink:href="#m39191ffc1f" x="32.664615" y="41.818457" style="fill: #0072b2"/>
     <use xlink:href="#m39191ffc1f" x="31.565714" y="41.645592" style="fill: #0072b2"/>
     <use xlink:href="#m39191ffc1f" x="30.613333" y="41.480827" style="fill: #0072b2"/>
     <use xlink:href="#m39191ffc1f" x="29.78" y="41.273022" style="fill: #0072b2"/>
     <use xlink:href="#m39191ffc1f" x="29.044706" y="40.983981" style="fill: #0072b2"/>
     <use xlink:href="#m39191ffc1f" x="28.391111" y="40.631567" style="fill: #0072b2"/>
     <use xlink:href="#m39191ffc1f" x="27.28" y="39.801226" style="fill: #0072b2"/>
    </g>
   </g>
   <g id="PathCollection_2">
    <defs>
     <path id="m864231c14e" d="M 0 1
C 0.265203 1 0.51958 0.894634 0.707107 0.707107
C 0.894634 0.51958 1 0.265203 1 0
C 1 -0.265203 0.894634 -0.51958 0.707107 -0.707107
C 0.51958 -0.894634 0.265203 -1 0 -1
C -0.265203 -1 -0.51958 -0.894634 -0.707107 -0.707107
C -0.894634 -0.51958 -1 -0.265203 -1 0
C -1 0.265203 -0.894634 0.51958 -0.707107 0.707107
C -0.51958 0.894634 -0.265203 1 0 1
z
"/>
    </defs>
    <g clip-path="url(#pdd88a5c23e)">
     <use xlink:href="#m864231c14e" x="50.613333" y="33.620048" style="fill: #e5a50a"/>
     <use xlink:href="#m864231c14e" x="46.691765" y="31.146223" style="fill: #e5a50a"/>
     <use xlink:href="#m864231c14e" x="43.595789" y="29.740983" style="fill: #e5a50a"/>
     <use xlink:href="#m864231c14e" x="41.089524" y="27.693465" style="fill: #e5a50a"/>
     <use xlink:href="#m864231c14e" x="39.01913" y="26.457548" style="fill: #e5a50a"/>
     <use xlink:href="#m864231c14e" x="37.28" y="25.205249" style="fill: #e5a50a"/>
     <use xlink:href="#m864231c14e" x="35.461818" y="24.332116" style="fill: #e5a50a"/>
     <use xlink:href="#m864231c14e" x="33.946667" y="23.196509" style="fill: #e5a50a"/>
     <use xlink:href="#m864231c14e" x="32.664615" y="22.107226" style="fill: #e5a50a"/>
     <use xlink:href="#m864231c14e" x="31.565714" y="21.504646" style="fill: #e5a50a"/>
     <use xlink:href="#m864231c14e" x="30.613333" y="20.815433" style="fill: #e5a50a"/>
     <use xlink:href="#m864231c14e" x="29.78" y="20.193531" style="fill: #e5a50a"/>
     <use xlink:href="#m864231c14e" x="29.044706" y="19.659484" style="fill: #e5a50a"/>
     <use xlink:href="#m864231c14e" x="28.391111" y="19.227633" style="fill: #e5a50a"/>
     <use xlink:href="#m864231c14e" x="27.28" y="18.381742" style="fill: #e5a50a"/>
    </g>
   </g>
   <g id="PathCollection_3">
    <defs>
     <path id="m1480647342" d="M 0 1
C 0.265203 1 0.51958 0.894634 0.707107 0.707107
C 0.894634 0.51958 1 0.265203 1 0
C 1 -0.265203 0.894634 -0.51958 0.707107 -0.707107
C 0.51958 -0.894634 0.265203 -1 0 -1
C -0.265203 -1 -0.51958 -0.894634 -0.707107 -0.707107
C -0.894634 -0.51958 -1 -0.265203 -1 0
C -1 0.265203 -0.894634 0.51958 -0.707107 0.707107
C -0.51958 0.894634 -0.265203 1 0 1
z
"/>
    </defs>
    <g clip-path="url(#pdd88a5c23e)">
     <use xlink:href="#m1480647342" x="50.613333" y="31.199297" style="fill: #69a832"/>
     <use xlink:href="#m1480647342" x="46.691765" y="29.104635" style="fill: #69a832"/>
     <use xlink:href="#m1480647342" x="43.595789" y="27.447887" style="fill: #69a832"/>
     <use xlink:href="#m1480647342" x="41.089524" y="26.154649" style="fill: #69a832"/>
     <use xlink:href="#m1480647342" x="39.01913" y="24.696047" style="fill: #69a832"/>
     <use xlink:href="#m1480647342" x="37.28" y="23.794638" style="fill: #69a832"/>
     <use xlink:href="#m1480647342" x="35.461818" y="22.607643" style="fill: #69a832"/>
     <use xlink:href="#m1480647342" x="33.946667" y="21.687274" style="fill: #69a832"/>
     <use xlink:href="#m1480647342" x="32.664615" y="20.923294" style="fill: #69a832"/>
     <use xlink:href="#m1480647342" x="31.565714" y="20.218858" style="fill: #69a832"/>
     <use xlink:href="#m1480647342" x="30.613333" y="19.688472" style="fill: #69a832"/>
     <use xlink:href="#m1480647342" x="29.78" y="19.118529" style="fill: #69a832"/>
     <use xlink:href="#m1480647342" x="29.044706" y="18.676649" style="fill: #69a832"/>
     <use xlink:href="#m1480647342" x="28.391111" y="18.224306" style="fill: #69a832"/>
     <use xlink:href="#m1480647342" x="27.28" y="17.507115" style="fill: #69a832"/>
    </g>
   </g>
   <g id="PathCollection_4">
    <defs>
     <path id="mbba4c7f37f" d="M 0 1
C 0.265203 1 0.51958 0.894634 0.707107 0.707107
C 0.894634 0.51958 1 0.265203 1 0
C 1 -0.265203 0.894634 -0.51958 0.707107 -0.707107
C 0.51958 -0.894634 0.265203 -1 0 -1
C -0.265203 -1 -0.51958 -0.894634 -0.707107 -0.707107
C -0.894634 -0.51958 -1 -0.265203 -1 0
C -1 0.265203 -0.894634 0.51958 -0.707107 0.707107
C -0.51958 0.894634 -0.265203 1 0 1
z
"/>
    </defs>
    <g clip-path="url(#pdd88a5c23e)">
     <use xlink:href="#mbba4c7f37f" x="50.613333" y="30.328779" style="fill: #b2183b"/>
     <use xlink:href="#mbba4c7f37f" x="46.691765" y="27.7109" style="fill: #b2183b"/>
     <use xlink:href="#mbba4c7f37f" x="43.595789" y="26.025915" style="fill: #b2183b"/>
     <use xlink:href="#mbba4c7f37f" x="41.089524" y="24.963482" style="fill: #b2183b"/>
     <use xlink:href="#mbba4c7f37f" x="39.01913" y="23.656991" style="fill: #b2183b"/>
     <use xlink:href="#mbba4c7f37f" x="37.28" y="22.811314" style="fill: #b2183b"/>
     <use xlink:href="#mbba4c7f37f" x="35.461818" y="22.042077" style="fill: #b2183b"/>
     <use xlink:href="#mbba4c7f37f" x="33.946667" y="20.766035" style="fill: #b2183b"/>
     <use xlink:href="#mbba4c7f37f" x="32.664615" y="20.11883" style="fill: #b2183b"/>
     <use xlink:href="#mbba4c7f37f" x="31.565714" y="19.605126" style="fill: #b2183b"/>
     <use xlink:href="#mbba4c7f37f" x="30.613333" y="18.963062" style="fill: #b2183b"/>
     <use xlink:href="#mbba4c7f37f" x="29.78" y="18.436568" style="fill: #b2183b"/>
     <use xlink:href="#mbba4c7f37f" x="29.044706" y="18.088358" style="fill: #b2183b"/>
     <use xlink:href="#mbba4c7f37f" x="28.391111" y="17.734545" style="fill: #b2183b"/>
     <use xlink:href="#mbba4c7f37f" x="27.28" y="16.945862" style="fill: #b2183b"/>
    </g>
   </g>
   <g id="PathCollection_5">
    <defs>
     <path id="mffc81caa51" d="M 0 1
C 0.265203 1 0.51958 0.894634 0.707107 0.707107
C 0.894634 0.51958 1 0.265203 1 0
C 1 -0.265203 0.894634 -0.51958 0.707107 -0.707107
C 0.51958 -0.894634 0.265203 -1 0 -1
C -0.265203 -1 -0.51958 -0.894634 -0.707107 -0.707107
C -0.894634 -0.51958 -1 -0.265203 -1 0
C -1 0.265203 -0.894634 0.51958 -0.707107 0.707107
C -0.51958 0.894634 -0.265203 1 0 1
z
"/>
    </defs>
    <g clip-path="url(#pdd88a5c23e)">
     <use xlink:href="#mffc81caa51" x="50.613333" y="28.907089" style="fill: #d45a16"/>
     <use xlink:href="#mffc81caa51" x="46.691765" y="26.992437" style="fill: #d45a16"/>
     <use xlink:href="#mffc81caa51" x="43.595789" y="25.668" style="fill: #d45a16"/>
     <use xlink:href="#mffc81caa51" x="41.089524" y="24.076475" style="fill: #d45a16"/>
     <use xlink:href="#mffc81caa51" x="39.01913" y="22.88116" style="fill: #d45a16"/>
     <use xlink:href="#mffc81caa51" x="37.28" y="22.278416" style="fill: #d45a16"/>
     <use xlink:href="#mffc81caa51" x="35.461818" y="21.081816" style="fill: #d45a16"/>
     <use xlink:href="#mffc81caa51" x="33.946667" y="20.340205" style="fill: #d45a16"/>
     <use xlink:href="#mffc81caa51" x="32.664615" y="19.529644" style="fill: #d45a16"/>
     <use xlink:href="#mffc81caa51" x="31.565714" y="18.87134" style="fill: #d45a16"/>
     <use xlink:href="#mffc81caa51" x="30.613333" y="18.453655" style="fill: #d45a16"/>
     <use xlink:href="#mffc81caa51" x="29.78" y="17.904097" style="fill: #d45a16"/>
     <use xlink:href="#mffc81caa51" x="29.044706" y="17.456179" style="fill: #d45a16"/>
     <use xlink:href="#mffc81caa51" x="28.391111" y="17.157864" style="fill: #d45a16"/>
     <use xlink:href="#mffc81caa51" x="27.28" y="16.547867" style="fill: #d45a16"/>
    </g>
   </g>
   <g id="PathCollection_6">
    <defs>
     <path id="m5c289c99a9" d="M 0 1
C 0.265203 1 0.51958 0.894634 0.707107 0.707107
C 0.894634 0.51958 1 0.265203 1 0
C 1 -0.265203 0.894634 -0.51958 0.707107 -0.707107
C 0.51958 -0.894634 0.265203 -1 0 -1
C -0.265203 -1 -0.51958 -0.894634 -0.707107 -0.707107
C -0.894634 -0.51958 -1 -0.265203 -1 0
C -1 0.265203 -0.894634 0.51958 -0.707107 0.707107
C -0.51958 0.894634 -0.265203 1 0 1
z
"/>
    </defs>
    <g clip-path="url(#pdd88a5c23e)">
     <use xlink:href="#m5c289c99a9" x="50.613333" y="27.951144" style="fill: #7a3294"/>
     <use xlink:href="#m5c289c99a9" x="46.691765" y="26.209211" style="fill: #7a3294"/>
     <use xlink:href="#m5c289c99a9" x="43.595789" y="24.761282" style="fill: #7a3294"/>
     <use xlink:href="#m5c289c99a9" x="41.089524" y="23.63187" style="fill: #7a3294"/>
     <use xlink:href="#m5c289c99a9" x="39.01913" y="22.511092" style="fill: #7a3294"/>
     <use xlink:href="#m5c289c99a9" x="37.28" y="21.380895" style="fill: #7a3294"/>
     <use xlink:href="#m5c289c99a9" x="35.461818" y="20.588491" style="fill: #7a3294"/>
     <use xlink:href="#m5c289c99a9" x="33.946667" y="19.88428" style="fill: #7a3294"/>
     <use xlink:href="#m5c289c99a9" x="32.664615" y="18.982172" style="fill: #7a3294"/>
     <use xlink:href="#m5c289c99a9" x="31.565714" y="18.517532" style="fill: #7a3294"/>
     <use xlink:href="#m5c289c99a9" x="30.613333" y="17.92691" style="fill: #7a3294"/>
     <use xlink:href="#m5c289c99a9" x="29.78" y="17.501876" style="fill: #7a3294"/>
     <use xlink:href="#m5c289c99a9" x="29.044706" y="17.030433" style="fill: #7a3294"/>
     <use xlink:href="#m5c289c99a9" x="28.391111" y="16.756799" style="fill: #7a3294"/>
     <use xlink:href="#m5c289c99a9" x="27.28" y="16.195278" style="fill: #7a3294"/>
    </g>
   </g>
   <g id="PathCollection_7">
    <defs>
     <path id="m0920291309" d="M 0 1
C 0.265203 1 0.51958 0.894634 0.707107 0.707107
C 0.894634 0.51958 1 0.265203 1 0
C 1 -0.265203 0.894634 -0.51958 0.707107 -0.707107
C 0.51958 -0.894634 0.265203 -1 0 -1
C -0.265203 -1 -0.51958 -0.894634 -0.707107 -0.707107
C -0.894634 -0.51958 -1 -0.265203 -1 0
C -1 0.265203 -0.894634 0.51958 -0.707107 0.707107
C -0.51958 0.894634 -0.265203 1 0 1
z
"/>
    </defs>
    <g clip-path="url(#pdd88a5c23e)">
     <use xlink:href="#m0920291309" x="50.613333" y="27.140148" style="fill: #46b2d9"/>
     <use xlink:href="#m0920291309" x="46.691765" y="25.151428" style="fill: #46b2d9"/>
     <use xlink:href="#m0920291309" x="43.595789" y="23.904033" style="fill: #46b2d9"/>
     <use xlink:href="#m0920291309" x="41.089524" y="22.580042" style="fill: #46b2d9"/>
     <use xlink:href="#m0920291309" x="39.01913" y="21.757262" style="fill: #46b2d9"/>
     <use xlink:href="#m0920291309" x="37.28" y="20.906482" style="fill: #46b2d9"/>
     <use xlink:href="#m0920291309" x="35.461818" y="20.191339" style="fill: #46b2d9"/>
     <use xlink:href="#m0920291309" x="33.946667" y="19.152864" style="fill: #46b2d9"/>
     <use xlink:href="#m0920291309" x="32.664615" y="18.755447" style="fill: #46b2d9"/>
     <use xlink:href="#m0920291309" x="31.565714" y="18.002305" style="fill: #46b2d9"/>
     <use xlink:href="#m0920291309" x="30.613333" y="17.563559" style="fill: #46b2d9"/>
     <use xlink:href="#m0920291309" x="29.78" y="17.070928" style="fill: #46b2d9"/>
     <use xlink:href="#m0920291309" x="29.044706" y="16.749365" style="fill: #46b2d9"/>
     <use xlink:href="#m0920291309" x="28.391111" y="16.394606" style="fill: #46b2d9"/>
     <use xlink:href="#m0920291309" x="27.28" y="15.909588" style="fill: #46b2d9"/>
    </g>
   </g>
   <g id="PathCollection_8">
    <defs>
     <path id="m3aebda9cb3" d="M 0 2.12132
C 0.562581 2.12132 1.102195 1.897805 1.5 1.5
C 1.897805 1.102195 2.12132 0.562581 2.12132 0
C 2.12132 -0.562581 1.897805 -1.102195 1.5 -1.5
C 1.102195 -1.897805 0.562581 -2.12132 0 -2.12132
C -0.562581 -2.12132 -1.102195 -1.897805 -1.5 -1.5
C -1.897805 -1.102195 -2.12132 -0.562581 -2.12132 0
C -2.12132 0.562581 -1.897805 1.102195 -1.5 1.5
C -1.102195 1.897805 -0.562581 2.12132 0 2.12132
z
"/>
    </defs>
    <g clip-path="url(#pdd88a5c23e)">
     <use xlink:href="#m3aebda9cb3" x="17.28" y="10.586141" style="fill: #0b0bef"/>
    </g>
   </g>
   <g id="legend_1">
    <g id="PathCollection_9">
     <defs>
      <path id="m2d8fdb37dc" d="M 0 0.75
C 0.198902 0.75 0.389685 0.670975 0.53033 0.53033
C 0.670975 0.389685 0.75 0.198902 0.75 0
C 0.75 -0.198902 0.670975 -0.389685 0.53033 -0.53033
C 0.389685 -0.670975 0.198902 -0.75 0 -0.75
C -0.198902 -0.75 -0.389685 -0.670975 -0.53033 -0.53033
C -0.670975 -0.389685 -0.75 -0.198902 -0.75 0
C -0.75 0.198902 -0.670975 0.389685 -0.53033 0.53033
C -0.389685 0.670975 -0.198902 0.75 0 0.75
z
"/>
     </defs>
     <g>
      <use xlink:href="#m2d8fdb37dc" x="45.048172" y="6.874375" style="fill: #0072b2"/>
     </g>
    </g>
    <g id="text_7">
     <!-- $\delta$=0 -->
     <g transform="translate(48.860672 7.675)">
      <text>
       <tspan x="0" y="-0.96875" style="font-style: italic; font-size: 3.05px; font-family: 'STIXGeneral'">δ</tspan>
       <tspan x="1.37999" y="-0.96875" style="font-size: 3.05px; font-family: 'Times New Roman'">=</tspan>
       <tspan x="3.071884" y="-0.96875" style="font-size: 3.05px; font-family: 'Times New Roman'">0</tspan>
      </text>
     </g>
    </g>
    <g id="PathCollection_10">
     <defs>
      <path id="maa49913ca2" d="M 0 0.75
C 0.198902 0.75 0.389685 0.670975 0.53033 0.53033
C 0.670975 0.389685 0.75 0.198902 0.75 0
C 0.75 -0.198902 0.670975 -0.389685 0.53033 -0.53033
C 0.389685 -0.670975 0.198902 -0.75 0 -0.75
C -0.198902 -0.75 -0.389685 -0.670975 -0.53033 -0.53033
C -0.670975 -0.389685 -0.75 -0.198902 -0.75 0
C -0.75 0.198902 -0.670975 0.389685 -0.53033 0.53033
C -0.389685 0.670975 -0.198902 0.75 0 0.75
z
"/>
     </defs>
     <g>
      <use xlink:href="#maa49913ca2" x="45.048172" y="11.186789" style="fill: #e5a50a"/>
     </g>
    </g>
    <g id="text_8">
     <!-- $\delta$=0.05 -->
     <g transform="translate(48.860672 11.987414)">
      <text>
       <tspan x="0" y="-0.96875" style="font-style: italic; font-size: 3.05px; font-family: 'STIXGeneral'">δ</tspan>
       <tspan x="1.37999" y="-0.96875" style="font-size: 3.05px; font-family: 'Times New Roman'">=</tspan>
       <tspan x="3.071884" y="-0.96875" style="font-size: 3.05px; font-family: 'Times New Roman'">0</tspan>
       <tspan x="4.571884" y="-0.96875" style="font-size: 3.05px; font-family: 'Times New Roman'">.</tspan>
       <tspan x="5.321884" y="-0.96875" style="font-size: 3.05px; font-family: 'Times New Roman'">0</tspan>
       <tspan x="6.821884" y="-0.96875" style="font-size: 3.05px; font-family: 'Times New Roman'">5</tspan>
      </text>
     </g>
    </g>
    <g id="PathCollection_11">
     <defs>
      <path id="m45d8578a33" d="M 0 0.75
C 0.198902 0.75 0.389685 0.670975 0.53033 0.53033
C 0.670975 0.389685 0.75 0.198902 0.75 0
C 0.75 -0.198902 0.670975 -0.389685 0.53033 -0.53033
C 0.389685 -0.670975 0.198902 -0.75 0 -0.75
C -0.198902 -0.75 -0.389685 -0.670975 -0.53033 -0.53033
C -0.670975 -0.389685 -0.75 -0.198902 -0.75 0
C -0.75 0.198902 -0.670975 0.389685 -0.53033 0.53033
C -0.389685 0.670975 -0.198902 0.75 0 0.75
z
"/>
     </defs>
     <g>
      <use xlink:href="#m45d8578a33" x="45.048172" y="15.499203" style="fill: #69a832"/>
     </g>
    </g>
    <g id="text_9">
     <!-- $\delta$=0.1 -->
     <g transform="translate(48.860672 16.299828)">
      <text>
       <tspan x="0" y="-0.96875" style="font-style: italic; font-size: 3.05px; font-family: 'STIXGeneral'">δ</tspan>
       <tspan x="1.37999" y="-0.96875" style="font-size: 3.05px; font-family: 'Times New Roman'">=</tspan>
       <tspan x="3.071884" y="-0.96875" style="font-size: 3.05px; font-family: 'Times New Roman'">0</tspan>
       <tspan x="4.571884" y="-0.96875" style="font-size: 3.05px; font-family: 'Times New Roman'">.</tspan>
       <tspan x="5.321884" y="-0.96875" style="font-size: 3.05px; font-family: 'Times New Roman'">1</tspan>
      </text>
     </g>
    </g>
    <g id="PathCollection_12">
     <defs>
      <path id="m5081f6732f" d="M 0 0.75
C 0.198902 0.75 0.389685 0.670975 0.53033 0.53033
C 0.670975 0.389685 0.75 0.198902 0.75 0
C 0.75 -0.198902 0.670975 -0.389685 0.53033 -0.53033
C 0.389685 -0.670975 0.198902 -0.75 0 -0.75
C -0.198902 -0.75 -0.389685 -0.670975 -0.53033 -0.53033
C -0.670975 -0.389685 -0.75 -0.198902 -0.75 0
C -0.75 0.198902 -0.670975 0.389685 -0.53033 0.53033
C -0.389685 0.670975 -0.198902 0.75 0 0.75
z
"/>
     </defs>
     <g>
      <use xlink:href="#m5081f6732f" x="45.048172" y="19.811617" style="fill: #b2183b"/>
     </g>
    </g>
    <g id="text_10">
     <!-- $\delta$=0.15 -->
     <g transform="translate(48.860672 20.612242)">
      <text>
       <tspan x="0" y="-0.96875" style="font-style: italic; font-size: 3.05px; font-family: 'STIXGeneral'">δ</tspan>
       <tspan x="1.37999" y="-0.96875" style="font-size: 3.05px; font-family: 'Times New Roman'">=</tspan>
       <tspan x="3.071884" y="-0.96875" style="font-size: 3.05px; font-family: 'Times New Roman'">0</tspan>
       <tspan x="4.571884" y="-0.96875" style="font-size: 3.05px; font-family: 'Times New Roman'">.</tspan>
       <tspan x="5.321884" y="-0.96875" style="font-size: 3.05px; font-family: 'Times New Roman'">1</tspan>
       <tspan x="6.821884" y="-0.96875" style="font-size: 3.05px; font-family: 'Times New Roman'">5</tspan>
      </text>
     </g>
    </g>
    <g id="PathCollection_13">
     <defs>
      <path id="macabc6aacd" d="M 0 0.75
C 0.198902 0.75 0.389685 0.670975 0.53033 0.53033
C 0.670975 0.389685 0.75 0.198902 0.75 0
C 0.75 -0.198902 0.670975 -0.389685 0.53033 -0.53033
C 0.389685 -0.670975 0.198902 -0.75 0 -0.75
C -0.198902 -0.75 -0.389685 -0.670975 -0.53033 -0.53033
C -0.670975 -0.389685 -0.75 -0.198902 -0.75 0
C -0.75 0.198902 -0.670975 0.389685 -0.53033 0.53033
C -0.389685 0.670975 -0.198902 0.75 0 0.75
z
"/>
     </defs>
     <g>
      <use xlink:href="#macabc6aacd" x="61.914672" y="6.874375" style="fill: #d45a16"/>
     </g>
    </g>
    <g id="text_11">
     <!-- $\delta$=0.2 -->
     <g transform="translate(65.727172 7.675)">
      <text>
       <tspan x="0" y="-0.96875" style="font-style: italic; font-size: 3.05px; font-family: 'STIXGeneral'">δ</tspan>
       <tspan x="1.37999" y="-0.96875" style="font-size: 3.05px; font-family: 'Times New Roman'">=</tspan>
       <tspan x="3.071884" y="-0.96875" style="font-size: 3.05px; font-family: 'Times New Roman'">0</tspan>
       <tspan x="4.571884" y="-0.96875" style="font-size: 3.05px; font-family: 'Times New Roman'">.</tspan>
       <tspan x="5.321884" y="-0.96875" style="font-size: 3.05px; font-family: 'Times New Roman'">2</tspan>
      </text>
     </g>
    </g>
    <g id="PathCollection_14">
     <defs>
      <path id="mc754e6af15" d="M 0 0.75
C 0.198902 0.75 0.389685 0.670975 0.53033 0.53033
C 0.670975 0.389685 0.75 0.198902 0.75 0
C 0.75 -0.198902 0.670975 -0.389685 0.53033 -0.53033
C 0.389685 -0.670975 0.198902 -0.75 0 -0.75
C -0.198902 -0.75 -0.389685 -0.670975 -0.53033 -0.53033
C -0.670975 -0.389685 -0.75 -0.198902 -0.75 0
C -0.75 0.198902 -0.670975 0.389685 -0.53033 0.53033
C -0.389685 0.670975 -0.198902 0.75 0 0.75
z
"/>
     </defs>
     <g>
      <use xlink:href="#mc754e6af15" x="61.914672" y="11.186789" style="fill: #7a3294"/>
     </g>
    </g>
    <g id="text_12">
     <!-- $\delta$=0.25 -->
     <g transform="translate(65.727172 11.987414)">
      <text>
       <tspan x="0" y="-0.96875" style="font-style: italic; font-size: 3.05px; font-family: 'STIXGeneral'">δ</tspan>
       <tspan x="1.37999" y="-0.96875" style="font-size: 3.05px; font-family: 'Times New Roman'">=</tspan>
       <tspan x="3.071884" y="-0.96875" style="font-size: 3.05px; font-family: 'Times New Roman'">0</tspan>
       <tspan x="4.571884" y="-0.96875" style="font-size: 3.05px; font-family: 'Times New Roman'">.</tspan>
       <tspan x="5.321884" y="-0.96875" style="font-size: 3.05px; font-family: 'Times New Roman'">2</tspan>
       <tspan x="6.821884" y="-0.96875" style="font-size: 3.05px; font-family: 'Times New Roman'">5</tspan>
      </text>
     </g>
    </g>
    <g id="PathCollection_15">
     <defs>
      <path id="m1c6ddbe092" d="M 0 0.75
C 0.198902 0.75 0.389685 0.670975 0.53033 0.53033
C 0.670975 0.389685 0.75 0.198902 0.75 0
C 0.75 -0.198902 0.670975 -0.389685 0.53033 -0.53033
C 0.389685 -0.670975 0.198902 -0.75 0 -0.75
C -0.198902 -0.75 -0.389685 -0.670975 -0.53033 -0.53033
C -0.670975 -0.389685 -0.75 -0.198902 -0.75 0
C -0.75 0.198902 -0.670975 0.389685 -0.53033 0.53033
C -0.389685 0.670975 -0.198902 0.75 0 0.75
z
"/>
     </defs>
     <g>
      <use xlink:href="#m1c6ddbe092" x="61.914672" y="15.499203" style="fill: #46b2d9"/>
     </g>
    </g>
    <g id="text_13">
     <!-- $\delta$=0.3 -->
     <g transform="translate(65.727172 16.299828)">
      <text>
       <tspan x="0" y="-0.96875" style="font-style: italic; font-size: 3.05px; font-family: 'STIXGeneral'">δ</tspan>
       <tspan x="1.37999" y="-0.96875" style="font-size: 3.05px; font-family: 'Times New Roman'">=</tspan>
       <tspan x="3.071884" y="-0.96875" style="font-size: 3.05px; font-family: 'Times New Roman'">0</tspan>
       <tspan x="4.571884" y="-0.96875" style="font-size: 3.05px; font-family: 'Times New Roman'">.</tspan>
       <tspan x="5.321884" y="-0.96875" style="font-size: 3.05px; font-family: 'Times New Roman'">3</tspan>
      </text>
     </g>
    </g>
    <g id="PathCollection_16">
     <defs>
      <path id="m41a6600449" d="M 0 1.59099
C 0.421936 1.59099 0.826647 1.423353 1.125 1.125
C 1.423353 0.826647 1.59099 0.421936 1.59099 0
C 1.59099 -0.421936 1.423353 -0.826647 1.125 -1.125
C 0.826647 -1.423353 0.421936 -1.59099 0 -1.59099
C -0.421936 -1.59099 -0.826647 -1.423353 -1.125 -1.125
C -1.423353 -0.826647 -1.59099 -0.421936 -1.59099 0
C -1.59099 0.421936 -1.423353 0.826647 -1.125 1.125
C -0.826647 1.423353 -0.421936 1.59099 0 1.59099
z
"/>
     </defs>
     <g>
      <use xlink:href="#m41a6600449" x="61.914672" y="19.811617" style="fill: #0b0bef"/>
     </g>
    </g>
    <g id="text_14">
     <text style="font-size: 3.05px; font-family: 'Times New Roman', 'Times', 'DejaVu Serif', serif; text-anchor: start" x="65.727172" y="20.612242" transform="rotate(-0 65.727172 20.612242)">Amoeba</text>
    </g>
   </g>
  </g>
  <g id="text_15">
   <text style="font-size: 5.2px; font-family: 'Times New Roman', 'Times', 'DejaVu Serif', serif; text-anchor: start" x="0.72" y="4.81075" transform="rotate(-0 0.72 4.81075)">(f)</text>
  </g>
 </g>
 <defs>
  <clipPath id="pdd88a5c23e">
   <rect x="17.28" y="4.32" width="60" height="50.4"/>
  </clipPath>
 </defs>
</svg>
