<?xml version="1.0" encoding="utf-8" standalone="no"?>
<!DOCTYPE svg PUBLIC "-//W3C//DTD SVG 1.1//EN"
  "http://www.w3.org/Graphics/SVG/1.1/DTD/svg11.dtd">
<svg xmlns:xlink="http://www.w3.org/1999/xlink" width="224.398pt" height="98.4269pt" viewBox="0 0 224.398 98.4269" xmlns="http://www.w3.org/2000/svg" version="1.1">
 <metadata>
  <rdf:RDF xmlns:dc="http://purl.org/dc/elements/1.1/" xmlns:cc="http://creativecommons.org/ns#" xmlns:rdf="http://www.w3.org/1999/02/22-rdf-syntax-ns#">
   <cc:Work>
    <dc:type rdf:resource="http://purl.org/dc/dcmitype/StillImage"/>
    <dc:date>2026-07-14</dc:date>
    <dc:format>image/svg+xml</dc:format>
    <dc:creator>
     <cc:Agent>
      <dc:title>RunThePaper</dc:title>
     </cc:Agent>
    </dc:creator>
   </cc:Work>
  </rdf:RDF>
 </metadata>
 <defs>
  <style type="text/css">*{stroke-linejoin: round; stroke-linecap: butt}</style>
 </defs>
 <g id="figure_1">
  <g id="patch_1">
   <path d="M 0 98.4269
L 224.398 98.4269
L 224.398 0
L 0 0
z
" style="fill: #ffffff"/>
  </g>
  <g id="axes_1">
   <g id="patch_2">
    <path d="M 17.599843 79.697895
L 108.79903 79.697895
L 108.79903 4.383384
L 17.599843 4.383384
z
" style="fill: #ffffff"/>
   </g>
   <g id="matplotlib.axis_1">
    <g id="xtick_1">
     <g id="line2d_1">
      <defs>
       <path id="m54b71f200b" d="M 0 0
L 0 -2.2
" style="stroke: #000000; stroke-width: 0.45"/>
      </defs>
      <g>
       <use xlink:href="#m54b71f200b" x="24.114071" y="79.697895" style="stroke: #000000; stroke-width: 0.45"/>
      </g>
     </g>
     <g id="line2d_2">
      <defs>
       <path id="m76d126def9" d="M 0 0
L 0 2.2
" style="stroke: #000000; stroke-width: 0.45"/>
      </defs>
      <g>
       <use xlink:href="#m76d126def9" x="24.114071" y="4.383384" style="stroke: #000000; stroke-width: 0.45"/>
      </g>
     </g>
     <g id="text_1">
      <text style="font-size: 8px; font-family: 'Times New Roman', 'Times', 'DejaVu Serif', serif; text-anchor: middle" x="24.114071" y="86.752895" transform="rotate(-0 24.114071 86.752895)">−2</text>
     </g>
    </g>
    <g id="xtick_2">
     <g id="line2d_3">
      <g>
       <use xlink:href="#m54b71f200b" x="50.170981" y="79.697895" style="stroke: #000000; stroke-width: 0.45"/>
      </g>
     </g>
     <g id="line2d_4">
      <g>
       <use xlink:href="#m76d126def9" x="50.170981" y="4.383384" style="stroke: #000000; stroke-width: 0.45"/>
      </g>
     </g>
     <g id="text_2">
      <text style="font-size: 8px; font-family: 'Times New Roman', 'Times', 'DejaVu Serif', serif; text-anchor: middle" x="50.170981" y="86.752895" transform="rotate(-0 50.170981 86.752895)">0</text>
     </g>
    </g>
    <g id="xtick_3">
     <g id="line2d_5">
      <g>
       <use xlink:href="#m54b71f200b" x="76.227892" y="79.697895" style="stroke: #000000; stroke-width: 0.45"/>
      </g>
     </g>
     <g id="line2d_6">
      <g>
       <use xlink:href="#m76d126def9" x="76.227892" y="4.383384" style="stroke: #000000; stroke-width: 0.45"/>
      </g>
     </g>
     <g id="text_3">
      <text style="font-size: 8px; font-family: 'Times New Roman', 'Times', 'DejaVu Serif', serif; text-anchor: middle" x="76.227892" y="86.752895" transform="rotate(-0 76.227892 86.752895)">2</text>
     </g>
    </g>
    <g id="xtick_4">
     <g id="line2d_7">
      <g>
       <use xlink:href="#m54b71f200b" x="102.284803" y="79.697895" style="stroke: #000000; stroke-width: 0.45"/>
      </g>
     </g>
     <g id="line2d_8">
      <g>
       <use xlink:href="#m76d126def9" x="102.284803" y="4.383384" style="stroke: #000000; stroke-width: 0.45"/>
      </g>
     </g>
     <g id="text_4">
      <text style="font-size: 8px; font-family: 'Times New Roman', 'Times', 'DejaVu Serif', serif; text-anchor: middle" x="102.284803" y="86.752895" transform="rotate(-0 102.284803 86.752895)">4</text>
     </g>
    </g>
    <g id="text_5">
     <!-- Re$E$ -->
     <g transform="translate(54.549437 96.407895)">
      <text>
       <tspan x="0" y="-0.375" style="font-size: 10px; font-family: 'Times New Roman'">R</tspan>
       <tspan x="6.669922" y="-0.375" style="font-size: 10px; font-family: 'Times New Roman'">e</tspan>
       <tspan x="11.108398" y="-0.375" style="font-style: italic; font-size: 10px; font-family: 'STIXGeneral'">E</tspan>
      </text>
     </g>
    </g>
   </g>
   <g id="matplotlib.axis_2">
    <g id="ytick_1">
     <g id="line2d_9">
      <defs>
       <path id="mcdccaf904b" d="M 0 0
L 2.2 0
" style="stroke: #000000; stroke-width: 0.45"/>
      </defs>
      <g>
       <use xlink:href="#mcdccaf904b" x="17.599843" y="79.697895" style="stroke: #000000; stroke-width: 0.45"/>
      </g>
     </g>
     <g id="line2d_10">
      <defs>
       <path id="m5c14d8edc2" d="M 0 0
L -2.2 0
" style="stroke: #000000; stroke-width: 0.45"/>
      </defs>
      <g>
       <use xlink:href="#m5c14d8edc2" x="108.79903" y="79.697895" style="stroke: #000000; stroke-width: 0.45"/>
      </g>
     </g>
     <g id="text_6">
      <text style="font-size: 8px; font-family: 'Times New Roman', 'Times', 'DejaVu Serif', serif; text-anchor: end" x="16.099843" y="82.475395" transform="rotate(-0 16.099843 82.475395)">−1</text>
     </g>
    </g>
    <g id="ytick_2">
     <g id="line2d_11">
      <g>
       <use xlink:href="#mcdccaf904b" x="17.599843" y="42.040639" style="stroke: #000000; stroke-width: 0.45"/>
      </g>
     </g>
     <g id="line2d_12">
      <g>
       <use xlink:href="#m5c14d8edc2" x="108.79903" y="42.040639" style="stroke: #000000; stroke-width: 0.45"/>
      </g>
     </g>
     <g id="text_7">
      <text style="font-size: 8px; font-family: 'Times New Roman', 'Times', 'DejaVu Serif', serif; text-anchor: end" x="16.099843" y="44.818139" transform="rotate(-0 16.099843 44.818139)">0</text>
     </g>
    </g>
    <g id="ytick_3">
     <g id="line2d_13">
      <g>
       <use xlink:href="#mcdccaf904b" x="17.599843" y="4.383384" style="stroke: #000000; stroke-width: 0.45"/>
      </g>
     </g>
     <g id="line2d_14">
      <g>
       <use xlink:href="#m5c14d8edc2" x="108.79903" y="4.383384" style="stroke: #000000; stroke-width: 0.45"/>
      </g>
     </g>
     <g id="text_8">
      <text style="font-size: 8px; font-family: 'Times New Roman', 'Times', 'DejaVu Serif', serif; text-anchor: end" x="16.099843" y="7.160884" transform="rotate(-0 16.099843 7.160884)">1</text>
     </g>
    </g>
    <g id="text_9">
     <!-- Im$E$ -->
     <g transform="translate(4.449531 50.690639) rotate(-90)">
      <text>
       <tspan x="0" y="-0.375" style="font-size: 10px; font-family: 'Times New Roman'">I</tspan>
       <tspan x="3.330078" y="-0.375" style="font-size: 10px; font-family: 'Times New Roman'">m</tspan>
       <tspan x="11.108398" y="-0.375" style="font-style: italic; font-size: 10px; font-family: 'STIXGeneral'">E</tspan>
      </text>
     </g>
    </g>
   </g>
   <g id="QuadContourSet_1">
    <path d="M 24.439782 73.604863
L 24.765494 73.742717
L 25.091205 73.800573
L 25.416916 73.800238
L 25.742628 73.756158
L 26.068339 73.67179
L 26.39405 73.544688
L 26.635267 73.421686
L 26.719762 73.377012
L 27.045473 73.171662
L 27.274631 73.003272
L 27.371185 72.929496
L 27.696896 72.654915
L 27.773347 72.584858
L 28.022607 72.3483
L 28.2004 72.166444
L 28.348319 72.009565
L 28.58192 71.74803
L 28.67403 71.641223
L 28.932865 71.329616
L 28.999742 71.24658
L 29.261558 70.911202
L 29.325453 70.827059
L 29.572071 70.492788
L 29.651164 70.382861
L 29.866847 70.074374
L 29.976876 69.91323
L 30.147397 69.65596
L 30.302587 69.416121
L 30.41483 69.237546
L 30.628298 68.889172
L 30.670145 68.819132
L 30.914532 68.400718
L 30.95401 68.331529
L 31.149647 67.982304
L 31.279721 67.744196
L 31.376783 67.56389
L 31.597195 67.145476
L 31.605433 67.129594
L 31.811871 66.727062
L 31.931144 66.490859
L 32.021363 66.308648
L 32.225436 65.890234
L 32.256855 65.825022
L 32.422356 65.471821
L 32.582567 65.121322
L 32.613079 65.053407
L 32.798622 64.634993
L 32.908278 64.383341
L 32.979366 64.216579
L 33.154339 63.798165
L 33.23399 63.604537
L 33.325756 63.379751
L 33.494222 62.961337
L 33.559701 62.798938
L 33.657841 62.542923
L 33.815275 62.124509
L 33.885412 61.931863
L 33.964527 61.706095
L 34.104767 61.287681
L 34.211124 60.953929
L 34.239002 60.869267
L 34.37744 60.450853
L 34.515811 60.032439
L 34.536835 59.966056
L 34.640394 59.614025
L 34.75581 59.195611
L 34.862546 58.834642
L 34.879039 58.777197
L 34.990814 58.358783
L 35.093285 57.940369
L 35.188258 57.604808
L 35.205714 57.521956
L 35.266027 57.103542
L 35.302813 56.685128
L 35.268583 56.266714
L 35.188258 56.083283
L 34.862546 56.223941
L 34.820035 56.266714
L 34.536835 56.568909
L 34.416255 56.685128
L 34.211124 56.866894
L 33.969336 57.103542
L 33.885412 57.1862
L 33.559701 57.517355
L 33.555241 57.521956
L 33.23399 57.849168
L 33.145803 57.940369
L 32.908278 58.182633
L 32.737524 58.358783
L 32.582567 58.515547
L 32.329559 58.777197
L 32.256855 58.850812
L 31.931144 59.192641
L 31.928422 59.195611
L 31.605433 59.542102
L 31.540768 59.614025
L 31.279721 59.899564
L 31.16242 60.032439
L 30.95401 60.264399
L 30.792375 60.450853
L 30.628298 60.636636
L 30.430562 60.869267
L 30.302587 61.01698
L 30.077413 61.287681
L 29.976876 61.406251
L 29.733133 61.706095
L 29.651164 61.80501
L 29.397419 62.124509
L 29.325453 62.213353
L 29.069573 62.542923
L 28.999742 62.630995
L 28.748851 62.961337
L 28.67403 63.05761
L 28.434875 63.379751
L 28.348319 63.493448
L 28.127816 63.798165
L 28.022607 63.939731
L 27.828202 64.216579
L 27.696896 64.398527
L 27.536591 64.634993
L 27.371185 64.872421
L 27.25333 65.053407
L 27.045473 65.364194
L 26.978446 65.471821
L 26.719762 65.876543
L 26.711635 65.890234
L 26.457104 66.308648
L 26.39405 66.409564
L 26.210389 66.727062
L 26.068339 66.965789
L 25.969774 67.145476
L 25.742628 67.547357
L 25.734081 67.56389
L 25.511544 67.982304
L 25.416916 68.15457
L 25.294687 68.400718
L 25.091205 68.798638
L 25.081775 68.819132
L 24.88326 69.237546
L 24.765494 69.476983
L 24.687464 69.65596
L 24.498294 70.074374
L 24.439782 70.197804
L 24.320489 70.492788
L 24.148079 70.911202
L 24.114071 70.992371
L 23.991968 71.329616
L 23.833031 71.74803
L 23.788359 71.856825
L 23.692415 72.166444
L 23.62522 72.584858
L 23.762672 73.003272
L 23.788359 73.042654
L 24.114071 73.370777
L 24.188359 73.421686
L 24.439782 73.604863
z
M 79.159294 48.324592
L 79.485006 48.36327
L 79.810717 48.400212
L 80.136429 48.435469
L 80.46214 48.469056
L 80.787851 48.500937
L 81.113563 48.531027
L 81.439274 48.559214
L 81.764986 48.585388
L 82.090697 48.609465
L 82.416408 48.631402
L 82.74212 48.651201
L 83.067831 48.668895
L 83.393542 48.684529
L 83.719254 48.698133
L 84.044965 48.709707
L 84.370677 48.71921
L 84.696388 48.726565
L 85.022099 48.731672
L 85.347811 48.734431
L 85.673522 48.734771
L 85.999234 48.732665
L 86.324945 48.728123
L 86.650656 48.72117
L 86.976368 48.711827
L 87.302079 48.700109
L 87.62779 48.686031
L 87.953502 48.669611
L 88.279213 48.650862
L 88.604925 48.629784
L 88.930636 48.606338
L 89.256347 48.580438
L 89.582059 48.551944
L 89.90777 48.52069
L 90.233481 48.486523
L 90.559193 48.449335
L 90.884904 48.40907
L 91.210616 48.3657
L 91.536327 48.319195
L 91.551522 48.316849
L 91.862038 48.269581
L 92.18775 48.216646
L 92.513461 48.160183
L 92.839173 48.099956
L 93.164884 48.03574
L 93.490595 47.967344
L 93.798849 47.898435
L 93.816307 47.894602
L 94.142018 47.817552
L 94.467729 47.735732
L 94.793441 47.648815
L 95.119152 47.556391
L 95.370883 47.480021
L 95.444864 47.458084
L 95.770575 47.353714
L 96.096286 47.242428
L 96.421998 47.123733
L 96.580253 47.061607
L 96.747709 46.997611
L 97.073421 46.863847
L 97.399132 46.721787
L 97.566922 46.643193
L 97.724843 46.571561
L 98.050555 46.412678
L 98.376266 46.243286
L 98.408627 46.224779
L 98.701977 46.063573
L 99.027689 45.870538
L 99.125644 45.806365
L 99.3534 45.663913
L 99.679112 45.440591
L 99.747194 45.387951
L 100.004823 45.199371
L 100.284634 44.969537
L 100.330534 44.93405
L 100.656246 44.642448
L 100.743168 44.551123
L 100.981957 44.316429
L 101.13815 44.132709
L 101.307669 43.94678
L 101.480861 43.714295
L 101.63338 43.524734
L 101.777837 43.295881
L 101.959091 43.026858
L 102.036449 42.877467
L 102.270034 42.459053
L 102.284803 42.436156
L 102.444038 42.040639
L 102.284803 41.645123
L 102.270034 41.622226
L 102.036449 41.203812
L 101.959091 41.054421
L 101.777837 40.785398
L 101.63338 40.556545
L 101.480861 40.366984
L 101.307669 40.134499
L 101.13815 39.94857
L 100.981957 39.76485
L 100.743168 39.530156
L 100.656246 39.438831
L 100.330534 39.147228
L 100.284634 39.111742
L 100.004823 38.881908
L 99.747194 38.693328
L 99.679112 38.640688
L 99.3534 38.417366
L 99.125644 38.274914
L 99.027689 38.210741
L 98.701977 38.017706
L 98.408627 37.8565
L 98.376266 37.837992
L 98.050555 37.668601
L 97.724843 37.509718
L 97.566922 37.438086
L 97.399132 37.359492
L 97.073421 37.217432
L 96.747709 37.083668
L 96.580253 37.019672
L 96.421998 36.957546
L 96.096286 36.838851
L 95.770575 36.727565
L 95.444864 36.623195
L 95.370883 36.601258
L 95.119152 36.524887
L 94.793441 36.432464
L 94.467729 36.345547
L 94.142018 36.263727
L 93.816307 36.186677
L 93.798849 36.182844
L 93.490595 36.113935
L 93.164884 36.045539
L 92.839173 35.981323
L 92.513461 35.921096
L 92.18775 35.864633
L 91.862038 35.811697
L 91.551522 35.76443
L 91.536327 35.762084
L 91.210616 35.715579
L 90.884904 35.672209
L 90.559193 35.631944
L 90.233481 35.594756
L 89.90777 35.560589
L 89.582059 35.529335
L 89.256347 35.500841
L 88.930636 35.474941
L 88.604925 35.451495
L 88.279213 35.430417
L 87.953502 35.411668
L 87.62779 35.395248
L 87.302079 35.38117
L 86.976368 35.369452
L 86.650656 35.360109
L 86.324945 35.353156
L 85.999234 35.348614
L 85.673522 35.346508
L 85.347811 35.346848
L 85.022099 35.349607
L 84.696388 35.354714
L 84.370677 35.362069
L 84.044965 35.371572
L 83.719254 35.383146
L 83.393542 35.396749
L 83.067831 35.412383
L 82.74212 35.430078
L 82.416408 35.449877
L 82.090697 35.471814
L 81.764986 35.495891
L 81.439274 35.522065
L 81.113563 35.550252
L 80.787851 35.580342
L 80.46214 35.612223
L 80.136429 35.64581
L 79.810717 35.681067
L 79.485006 35.718009
L 79.159294 35.756687
L 79.096773 35.76443
L 78.833583 35.797131
L 78.507872 35.839394
L 78.18216 35.883487
L 77.856449 35.929391
L 77.530738 35.977072
L 77.205026 36.026497
L 76.879315 36.077636
L 76.553603 36.130459
L 76.24017 36.182844
L 76.227892 36.184902
L 75.902181 36.240821
L 75.576469 36.298105
L 75.250758 36.356661
L 74.925046 36.416516
L 74.599335 36.477789
L 74.273624 36.540606
L 73.966953 36.601258
L 73.947912 36.605031
L 73.622201 36.671032
L 73.29649 36.73862
L 72.970778 36.807754
L 72.645067 36.878383
L 72.319355 36.950477
L 72.013048 37.019672
L 71.993644 37.024061
L 71.667933 37.099158
L 71.342221 37.175877
L 71.01651 37.254244
L 70.690799 37.334195
L 70.365087 37.415644
L 70.276906 37.438086
L 70.039376 37.498579
L 69.713664 37.583178
L 69.387953 37.669586
L 69.062242 37.757749
L 68.73653 37.847384
L 68.703782 37.8565
L 68.410819 37.938111
L 68.085107 38.029815
L 67.759396 38.122711
L 67.433685 38.21716
L 67.238359 38.274914
L 67.107973 38.313449
L 66.782262 38.411786
L 66.456551 38.512288
L 66.130839 38.614955
L 65.887575 38.693328
L 65.805128 38.719895
L 65.479416 38.827055
L 65.153705 38.936032
L 64.827994 39.046124
L 64.635203 39.111742
L 64.502282 39.156983
L 64.176571 39.26859
L 63.850859 39.381148
L 63.525148 39.495709
L 63.429605 39.530156
L 63.199437 39.61317
L 62.873725 39.732541
L 62.548014 39.852753
L 62.290662 39.94857
L 62.222303 39.974008
L 61.896591 40.09624
L 61.57088 40.219708
L 61.245168 40.343306
L 61.183081 40.366984
L 60.919457 40.467157
L 60.593746 40.593588
L 60.268034 40.722868
L 60.109075 40.785398
L 59.942323 40.850221
L 59.616612 40.986175
L 59.2909 41.127246
L 59.118087 41.203812
L 58.965189 41.272494
L 58.639477 41.412358
L 58.313766 41.539299
L 58.136876 41.622226
L 57.988055 41.689703
L 57.662343 41.907945
L 57.336632 41.990748
L 57.271114 42.040639
L 57.336632 42.090531
L 57.662343 42.173334
L 57.988055 42.391576
L 58.136876 42.459053
L 58.313766 42.54198
L 58.639477 42.668921
L 58.965189 42.808785
L 59.118087 42.877467
L 59.2909 42.954033
L 59.616612 43.095103
L 59.942323 43.231058
L 60.109075 43.295881
L 60.268034 43.358411
L 60.593746 43.48769
L 60.919457 43.614122
L 61.183081 43.714295
L 61.245168 43.737973
L 61.57088 43.861571
L 61.896591 43.985039
L 62.222303 44.107271
L 62.290662 44.132709
L 62.548014 44.228526
L 62.873725 44.348738
L 63.199437 44.468108
L 63.429605 44.551123
L 63.525148 44.58557
L 63.850859 44.700131
L 64.176571 44.812689
L 64.502282 44.924296
L 64.635203 44.969537
L 64.827994 45.035155
L 65.153705 45.145247
L 65.479416 45.254224
L 65.805128 45.361384
L 65.887575 45.387951
L 66.130839 45.466324
L 66.456551 45.568991
L 66.782262 45.669493
L 67.107973 45.76783
L 67.238359 45.806365
L 67.433685 45.864119
L 67.759396 45.958568
L 68.085107 46.051464
L 68.410819 46.143168
L 68.703782 46.224779
L 68.73653 46.233895
L 69.062242 46.32353
L 69.387953 46.411693
L 69.713664 46.498101
L 70.039376 46.5827
L 70.276906 46.643193
L 70.365087 46.665635
L 70.690799 46.747084
L 71.01651 46.827035
L 71.342221 46.905402
L 71.667933 46.982121
L 71.993644 47.057218
L 72.013048 47.061607
L 72.319355 47.130802
L 72.645067 47.202896
L 72.970778 47.273525
L 73.29649 47.342659
L 73.622201 47.410247
L 73.947912 47.476248
L 73.966953 47.480021
L 74.273624 47.540673
L 74.599335 47.60349
L 74.925046 47.664763
L 75.250758 47.724618
L 75.576469 47.783174
L 75.902181 47.840457
L 76.227892 47.896377
L 76.24017 47.898435
L 76.553603 47.95082
L 76.879315 48.003643
L 77.205026 48.054782
L 77.530738 48.104206
L 77.856449 48.151888
L 78.18216 48.197792
L 78.507872 48.241885
L 78.833583 48.284148
L 79.096773 48.316849
L 79.159294 48.324592
z
M 34.862546 27.857338
L 35.188258 27.997996
L 35.268583 27.814565
L 35.302813 27.396151
L 35.266027 26.977737
L 35.205714 26.559323
L 35.188258 26.476471
L 35.093285 26.140909
L 34.990814 25.722496
L 34.879039 25.304082
L 34.862546 25.246637
L 34.75581 24.885668
L 34.640394 24.467254
L 34.536835 24.115223
L 34.515811 24.04884
L 34.37744 23.630426
L 34.239002 23.212012
L 34.211124 23.12735
L 34.104767 22.793598
L 33.964527 22.375184
L 33.885412 22.149416
L 33.815275 21.95677
L 33.657841 21.538356
L 33.559701 21.282341
L 33.494222 21.119942
L 33.325756 20.701528
L 33.23399 20.476742
L 33.154339 20.283114
L 32.979366 19.8647
L 32.908278 19.697938
L 32.798622 19.446286
L 32.613079 19.027872
L 32.582567 18.959957
L 32.422356 18.609458
L 32.256855 18.256257
L 32.225436 18.191044
L 32.021363 17.772631
L 31.931144 17.59042
L 31.811871 17.354217
L 31.605433 16.951685
L 31.597195 16.935803
L 31.376783 16.517389
L 31.279721 16.337083
L 31.149647 16.098975
L 30.95401 15.74975
L 30.914532 15.680561
L 30.670145 15.262147
L 30.628298 15.192107
L 30.41483 14.843733
L 30.302587 14.665158
L 30.147397 14.425319
L 29.976876 14.168049
L 29.866847 14.006905
L 29.651164 13.698418
L 29.572071 13.588491
L 29.325453 13.25422
L 29.261558 13.170077
L 28.999742 12.834699
L 28.932865 12.751663
L 28.67403 12.440056
L 28.58192 12.333249
L 28.348319 12.071714
L 28.2004 11.914835
L 28.022607 11.732979
L 27.773347 11.496421
L 27.696896 11.426364
L 27.371185 11.151783
L 27.274631 11.078007
L 27.045473 10.909617
L 26.719762 10.704267
L 26.635267 10.659593
L 26.39405 10.53659
L 26.068339 10.409489
L 25.742628 10.325121
L 25.416916 10.281041
L 25.091205 10.280706
L 24.765494 10.338562
L 24.439782 10.476416
L 24.188359 10.659593
L 24.114071 10.710502
L 23.788359 11.038625
L 23.762672 11.078007
L 23.62522 11.496421
L 23.692415 11.914835
L 23.788359 12.224454
L 23.833031 12.333249
L 23.991968 12.751663
L 24.114071 13.088908
L 24.148079 13.170077
L 24.320489 13.588491
L 24.439782 13.883474
L 24.498294 14.006905
L 24.687464 14.425319
L 24.765494 14.604296
L 24.88326 14.843733
L 25.081775 15.262147
L 25.091205 15.282641
L 25.294687 15.680561
L 25.416916 15.926709
L 25.511544 16.098975
L 25.734081 16.517389
L 25.742628 16.533922
L 25.969774 16.935803
L 26.068339 17.11549
L 26.210389 17.354217
L 26.39405 17.671715
L 26.457104 17.772631
L 26.711635 18.191044
L 26.719762 18.204736
L 26.978446 18.609458
L 27.045473 18.717085
L 27.25333 19.027872
L 27.371185 19.208858
L 27.536591 19.446286
L 27.696896 19.682752
L 27.828202 19.8647
L 28.022607 20.141548
L 28.127816 20.283114
L 28.348319 20.587831
L 28.434875 20.701528
L 28.67403 21.023669
L 28.748851 21.119942
L 28.999742 21.450284
L 29.069573 21.538356
L 29.325453 21.867926
L 29.397419 21.95677
L 29.651164 22.276269
L 29.733133 22.375184
L 29.976876 22.675028
L 30.077413 22.793598
L 30.302587 23.064299
L 30.430562 23.212012
L 30.628298 23.444643
L 30.792375 23.630426
L 30.95401 23.81688
L 31.16242 24.04884
L 31.279721 24.181715
L 31.540768 24.467254
L 31.605433 24.539177
L 31.928422 24.885668
L 31.931144 24.888638
L 32.256855 25.230467
L 32.329559 25.304082
L 32.582567 25.565732
L 32.737524 25.722496
L 32.908278 25.898646
L 33.145803 26.140909
L 33.23399 26.232111
L 33.555241 26.559323
L 33.559701 26.563924
L 33.885412 26.895079
L 33.969336 26.977737
L 34.211124 27.214385
L 34.416255 27.396151
L 34.536835 27.512369
L 34.820035 27.814565
L 34.862546 27.857338
z
" clip-path="url(#p16fd1f27c9)" style="fill: none; stroke: #ffb6ff; stroke-width: 0.65"/>
   </g>
   <g id="QuadContourSet_2">
    <path d="M 36.491103 54.276959
L 36.412559 54.174644
L 36.32519 53.75623
L 36.344675 53.337816
L 36.377415 52.919402
L 36.420448 52.500988
L 36.46792 52.082574
L 36.491103 51.901219
L 36.526922 51.66416
L 36.590348 51.245746
L 36.64526 50.827332
L 36.695976 50.408918
L 36.74577 49.990504
L 36.791263 49.572091
L 36.816815 49.322701
L 36.834822 49.153677
L 36.878713 48.735263
L 36.91994 48.316849
L 36.957985 47.898435
L 36.990989 47.480021
L 37.023808 47.061607
L 37.054668 46.643193
L 37.082638 46.224779
L 37.107722 45.806365
L 37.12992 45.387951
L 37.142526 45.118098
L 37.149678 44.969537
L 37.167266 44.551123
L 37.182086 44.132709
L 37.194135 43.714295
L 37.203564 43.295881
L 37.210272 42.877467
L 37.214172 42.459053
L 37.21541 42.040639
L 37.214172 41.622226
L 37.210272 41.203812
L 37.203564 40.785398
L 37.194135 40.366984
L 37.182086 39.94857
L 37.167266 39.530156
L 37.149678 39.111742
L 37.142526 38.963181
L 37.12992 38.693328
L 37.107722 38.274914
L 37.082638 37.8565
L 37.054668 37.438086
L 37.023808 37.019672
L 36.990989 36.601258
L 36.957985 36.182844
L 36.91994 35.76443
L 36.878713 35.346016
L 36.834822 34.927602
L 36.816815 34.758578
L 36.791263 34.509188
L 36.74577 34.090774
L 36.695976 33.672361
L 36.64526 33.253947
L 36.590348 32.835533
L 36.526922 32.417119
L 36.491103 32.18006
L 36.46792 31.998705
L 36.420448 31.580291
L 36.377415 31.161877
L 36.344675 30.743463
L 36.32519 30.325049
L 36.412559 29.906635
L 36.491103 29.80432
L 36.816815 29.87122
L 36.865348 29.906635
L 37.142526 30.11567
L 37.420545 30.325049
L 37.468237 30.361493
L 37.793949 30.597532
L 37.993536 30.743463
L 38.11966 30.836176
L 38.445372 31.079731
L 38.555209 31.161877
L 38.771083 31.325181
L 39.096794 31.570262
L 39.110291 31.580291
L 39.422506 31.814604
L 39.669797 31.998705
L 39.748217 32.057647
L 40.073929 32.29961
L 40.23373 32.417119
L 40.39964 32.540254
L 40.725351 32.779415
L 40.802779 32.835533
L 41.051063 33.017081
L 41.376774 33.252797
L 41.378386 33.253947
L 41.702485 33.486871
L 41.963415 33.672361
L 42.028197 33.718784
L 42.353908 33.948814
L 42.557366 34.090774
L 42.67962 34.176719
L 43.005331 34.402617
L 43.160973 34.509188
L 43.331042 34.626463
L 43.656754 34.848244
L 43.774844 34.927602
L 43.982465 35.068056
L 44.308177 35.285806
L 44.399431 35.346016
L 44.633888 35.501687
L 44.959599 35.715559
L 45.034992 35.76443
L 45.285311 35.927663
L 45.611022 36.137845
L 45.681632 36.182844
L 45.936733 36.346357
L 46.262445 36.553028
L 46.339392 36.601258
L 46.588156 36.758055
L 46.913868 36.961244
L 47.008659 37.019672
L 47.239579 37.162768
L 47.56529 37.362554
L 47.68981 37.438086
L 47.891002 37.560782
L 48.216713 37.757342
L 48.383035 37.8565
L 48.542424 37.952053
L 48.868136 38.144552
L 49.092068 38.274914
L 49.193847 38.334452
L 49.519559 38.521797
L 49.822335 38.693328
L 49.84527 38.706373
L 50.170981 38.888634
L 50.496693 39.068615
L 50.576204 39.111742
L 50.822404 39.245775
L 51.148116 39.419108
L 51.359909 39.530156
L 51.473827 39.589901
L 51.799538 39.760085
L 52.12525 39.931072
L 52.158681 39.94857
L 52.450961 40.101981
L 52.776672 40.273386
L 52.953896 40.366984
L 53.102384 40.44597
L 53.428095 40.616718
L 53.753807 40.782793
L 53.759088 40.785398
L 54.079518 40.942892
L 54.405229 41.103364
L 54.592141 41.203812
L 54.730941 41.281618
L 55.056652 41.436058
L 55.382364 41.589673
L 55.444078 41.622226
L 55.708075 41.763745
L 56.033786 41.940375
L 56.336482 42.040639
L 56.033786 42.140904
L 55.708075 42.317534
L 55.444078 42.459053
L 55.382364 42.491606
L 55.056652 42.645221
L 54.730941 42.799661
L 54.592141 42.877467
L 54.405229 42.977915
L 54.079518 43.138387
L 53.759088 43.295881
L 53.753807 43.298486
L 53.428095 43.464561
L 53.102384 43.635309
L 52.953896 43.714295
L 52.776672 43.807893
L 52.450961 43.979298
L 52.158681 44.132709
L 52.12525 44.150207
L 51.799538 44.321194
L 51.473827 44.491378
L 51.359909 44.551123
L 51.148116 44.662171
L 50.822404 44.835504
L 50.576204 44.969537
L 50.496693 45.012664
L 50.170981 45.192645
L 49.84527 45.374906
L 49.822335 45.387951
L 49.519559 45.559482
L 49.193847 45.746827
L 49.092068 45.806365
L 48.868136 45.936727
L 48.542424 46.129225
L 48.383035 46.224779
L 48.216713 46.323937
L 47.891002 46.520497
L 47.68981 46.643193
L 47.56529 46.718725
L 47.239579 46.918511
L 47.008659 47.061607
L 46.913868 47.120035
L 46.588156 47.323224
L 46.339392 47.480021
L 46.262445 47.528251
L 45.936733 47.734922
L 45.681632 47.898435
L 45.611022 47.943434
L 45.285311 48.153616
L 45.034992 48.316849
L 44.959599 48.36572
L 44.633888 48.579592
L 44.399431 48.735263
L 44.308177 48.795473
L 43.982465 49.013223
L 43.774844 49.153677
L 43.656754 49.233035
L 43.331042 49.454816
L 43.160973 49.572091
L 43.005331 49.678662
L 42.67962 49.90456
L 42.557366 49.990504
L 42.353908 50.132465
L 42.028197 50.362495
L 41.963415 50.408918
L 41.702485 50.594408
L 41.378386 50.827332
L 41.376774 50.828482
L 41.051063 51.064197
L 40.802779 51.245746
L 40.725351 51.301864
L 40.39964 51.541025
L 40.23373 51.66416
L 40.073929 51.781669
L 39.748217 52.023632
L 39.669797 52.082574
L 39.422506 52.266675
L 39.110291 52.500988
L 39.096794 52.511017
L 38.771083 52.756098
L 38.555209 52.919402
L 38.445372 53.001548
L 38.11966 53.245103
L 37.993536 53.337816
L 37.793949 53.483747
L 37.468237 53.719786
L 37.420545 53.75623
L 37.142526 53.965609
L 36.865348 54.174644
L 36.816815 54.210059
L 36.491103 54.276959
z
" clip-path="url(#p16fd1f27c9)" style="fill: none; stroke: #ffb6ff; stroke-width: 0.65"/>
   </g>
   <g id="QuadContourSet_3">
    <path d="M 25.742628 70.122381
L 26.068339 70.162495
L 26.39405 70.076826
L 26.401804 70.074374
L 26.719762 69.96645
L 27.045473 69.844341
L 27.371185 69.697258
L 27.44889 69.65596
L 27.696896 69.513587
L 28.022607 69.24997
L 28.036954 69.237546
L 28.348319 68.960203
L 28.514775 68.819132
L 28.67403 68.676038
L 28.943433 68.400718
L 28.999742 68.343031
L 29.3149 67.982304
L 29.325453 67.970002
L 29.645395 67.56389
L 29.651164 67.556519
L 29.976876 67.160603
L 29.988545 67.145476
L 30.287412 66.727062
L 30.302587 66.706246
L 30.565169 66.308648
L 30.628298 66.20958
L 30.82541 65.890234
L 30.95401 65.663038
L 31.071806 65.471821
L 31.279721 65.144744
L 31.333433 65.053407
L 31.565083 64.634993
L 31.605433 64.557603
L 31.764623 64.216579
L 31.931144 63.865183
L 31.964008 63.798165
L 32.148978 63.379751
L 32.256855 63.101818
L 32.31317 62.961337
L 32.47408 62.542923
L 32.582567 62.279468
L 32.635969 62.124509
L 32.758292 61.706095
L 32.88657 61.287681
L 32.908278 61.20319
L 33.003345 60.869267
L 33.115155 60.450853
L 33.208836 60.032439
L 33.23399 59.888647
L 33.280741 59.614025
L 33.338528 59.195611
L 33.363728 58.777197
L 33.340641 58.358783
L 33.23399 58.034213
L 33.187144 57.940369
L 32.908278 57.726967
L 32.582567 57.798422
L 32.385907 57.940369
L 32.256855 58.032099
L 31.931144 58.321258
L 31.894451 58.358783
L 31.605433 58.661607
L 31.501061 58.777197
L 31.279721 59.007034
L 31.12387 59.195611
L 30.95401 59.395085
L 30.798781 59.614025
L 30.628298 59.848903
L 30.496641 60.032439
L 30.302587 60.300503
L 30.193279 60.450853
L 29.976876 60.72626
L 29.870534 60.869267
L 29.651164 61.161312
L 29.555347 61.287681
L 29.325453 61.578966
L 29.232835 61.706095
L 28.999742 62.022942
L 28.92934 62.124509
L 28.67403 62.483399
L 28.632589 62.542923
L 28.348319 62.937924
L 28.332397 62.961337
L 28.043519 63.379751
L 28.022607 63.410096
L 27.766637 63.798165
L 27.696896 63.901351
L 27.486038 64.216579
L 27.371185 64.382593
L 27.202196 64.634993
L 27.045473 64.864298
L 26.925998 65.053407
L 26.719762 65.368218
L 26.660574 65.471821
L 26.428763 65.890234
L 26.39405 65.955385
L 26.207681 66.308648
L 26.068339 66.557568
L 25.982187 66.727062
L 25.793322 67.145476
L 25.742628 67.270044
L 25.61288 67.56389
L 25.416916 67.961738
L 25.407314 67.982304
L 25.262466 68.400718
L 25.166659 68.819132
L 25.091205 69.191313
L 25.079209 69.237546
L 25.091205 69.31321
L 25.159874 69.65596
L 25.416916 69.934581
L 25.635144 70.074374
L 25.742628 70.122381
z
M 82.416408 47.906943
L 82.74212 47.925358
L 83.067831 47.941483
L 83.393542 47.955386
L 83.719254 47.96712
L 84.044965 47.976751
L 84.370677 47.98442
L 84.696388 47.990315
L 85.022099 47.99454
L 85.347811 47.996976
L 85.673522 47.997281
L 85.999234 47.995053
L 86.324945 47.990044
L 86.650656 47.982258
L 86.976368 47.971853
L 87.302079 47.958988
L 87.62779 47.943718
L 87.953502 47.925967
L 88.279213 47.905539
L 88.377543 47.898435
L 88.604925 47.882174
L 88.930636 47.855575
L 89.256347 47.825544
L 89.582059 47.792047
L 89.90777 47.755131
L 90.233481 47.714785
L 90.559193 47.670875
L 90.884904 47.623232
L 91.210616 47.571803
L 91.536327 47.516739
L 91.740323 47.480021
L 91.862038 47.458378
L 92.18775 47.397038
L 92.513461 47.33277
L 92.839173 47.265462
L 93.164884 47.194757
L 93.490595 47.120053
L 93.72935 47.061607
L 93.816307 47.040686
L 94.142018 46.956244
L 94.467729 46.86635
L 94.793441 46.771198
L 95.119152 46.670931
L 95.203612 46.643193
L 95.444864 46.565592
L 95.770575 46.454306
L 96.096286 46.335996
L 96.382547 46.224779
L 96.421998 46.209809
L 96.747709 46.075629
L 97.073421 45.932146
L 97.339701 45.806365
L 97.399132 45.778984
L 97.724843 45.616493
L 98.050555 45.443932
L 98.149496 45.387951
L 98.376266 45.263189
L 98.701977 45.074043
L 98.870337 44.969537
L 99.027689 44.875196
L 99.3534 44.66491
L 99.515881 44.551123
L 99.679112 44.441495
L 100.004823 44.200063
L 100.084841 44.132709
L 100.330534 43.933692
L 100.569702 43.714295
L 100.656246 43.637494
L 100.981957 43.312781
L 100.997154 43.295881
L 101.307669 42.959237
L 101.377504 42.877467
L 101.63338 42.584172
L 101.749955 42.459053
L 101.959091 42.276449
L 102.144918 42.040639
L 101.959091 41.80483
L 101.749955 41.622226
L 101.63338 41.497107
L 101.377504 41.203812
L 101.307669 41.122042
L 100.997154 40.785398
L 100.981957 40.768498
L 100.656246 40.443785
L 100.569702 40.366984
L 100.330534 40.147586
L 100.084841 39.94857
L 100.004823 39.881216
L 99.679112 39.639784
L 99.515881 39.530156
L 99.3534 39.416369
L 99.027689 39.206083
L 98.870337 39.111742
L 98.701977 39.007236
L 98.376266 38.81809
L 98.149496 38.693328
L 98.050555 38.637347
L 97.724843 38.464786
L 97.399132 38.302295
L 97.339701 38.274914
L 97.073421 38.149133
L 96.747709 38.00565
L 96.421998 37.87147
L 96.382547 37.8565
L 96.096286 37.745283
L 95.770575 37.626973
L 95.444864 37.515687
L 95.203612 37.438086
L 95.119152 37.410348
L 94.793441 37.310081
L 94.467729 37.214929
L 94.142018 37.125035
L 93.816307 37.040593
L 93.72935 37.019672
L 93.490595 36.961226
L 93.164884 36.886522
L 92.839173 36.815816
L 92.513461 36.748509
L 92.18775 36.684241
L 91.862038 36.622901
L 91.740323 36.601258
L 91.536327 36.56454
L 91.210616 36.509476
L 90.884904 36.458047
L 90.559193 36.410404
L 90.233481 36.366494
L 89.90777 36.326148
L 89.582059 36.289232
L 89.256347 36.255735
L 88.930636 36.225704
L 88.604925 36.199105
L 88.377543 36.182844
L 88.279213 36.17574
L 87.953502 36.155312
L 87.62779 36.137561
L 87.302079 36.122291
L 86.976368 36.109426
L 86.650656 36.099021
L 86.324945 36.091235
L 85.999234 36.086226
L 85.673522 36.083997
L 85.347811 36.084302
L 85.022099 36.086739
L 84.696388 36.090964
L 84.370677 36.096859
L 84.044965 36.104528
L 83.719254 36.114159
L 83.393542 36.125893
L 83.067831 36.139796
L 82.74212 36.155921
L 82.416408 36.174336
L 82.282546 36.182844
L 82.090697 36.195083
L 81.764986 36.218174
L 81.439274 36.243598
L 81.113563 36.271342
L 80.787851 36.301392
L 80.46214 36.333709
L 80.136429 36.368227
L 79.810717 36.404894
L 79.485006 36.443694
L 79.159294 36.484673
L 78.833583 36.527964
L 78.507872 36.573791
L 78.323489 36.601258
L 78.18216 36.622372
L 77.856449 36.673834
L 77.530738 36.728107
L 77.205026 36.784788
L 76.879315 36.843283
L 76.553603 36.902998
L 76.227892 36.963451
L 75.926242 37.019672
L 75.902181 37.024176
L 75.576469 37.084652
L 75.250758 37.144342
L 74.925046 37.203093
L 74.599335 37.261391
L 74.273624 37.320206
L 73.947912 37.380442
L 73.645178 37.438086
L 73.622201 37.442463
L 73.29649 37.50615
L 72.970778 37.571418
L 72.645067 37.638331
L 72.319355 37.707084
L 71.993644 37.777804
L 71.667933 37.850353
L 71.640903 37.8565
L 71.342221 37.92443
L 71.01651 38.000133
L 70.690799 38.07806
L 70.365087 38.159055
L 70.039376 38.243775
L 69.924781 38.274914
L 69.713664 38.332351
L 69.387953 38.424458
L 69.062242 38.518912
L 68.73653 38.61401
L 68.462924 38.693328
L 68.410819 38.708456
L 68.085107 38.801809
L 67.759396 38.894836
L 67.433685 38.99006
L 67.107973 39.090318
L 67.041713 39.111742
L 66.782262 39.19578
L 66.456551 39.304872
L 66.130839 39.415396
L 65.805128 39.524573
L 65.788084 39.530156
L 65.479416 39.631045
L 65.153705 39.735579
L 64.827994 39.843053
L 64.535346 39.94857
L 64.502282 39.960438
L 64.176571 40.089711
L 63.850859 40.224546
L 63.525148 40.357012
L 63.499819 40.366984
L 63.199437 40.484106
L 62.873725 40.621556
L 62.548014 40.766597
L 62.501511 40.785398
L 62.222303 40.897906
L 61.896591 41.028745
L 61.57088 41.156717
L 61.435889 41.203812
L 61.245168 41.27005
L 60.919457 41.36871
L 60.593746 41.458801
L 60.3536 41.622226
L 60.268034 41.70793
L 59.942323 41.746059
L 59.629319 42.040639
L 59.942323 42.33522
L 60.268034 42.373349
L 60.3536 42.459053
L 60.593746 42.622478
L 60.919457 42.712569
L 61.245168 42.811229
L 61.435889 42.877467
L 61.57088 42.924562
L 61.896591 43.052534
L 62.222303 43.183373
L 62.501511 43.295881
L 62.548014 43.314682
L 62.873725 43.459723
L 63.199437 43.597173
L 63.499819 43.714295
L 63.525148 43.724267
L 63.850859 43.856732
L 64.176571 43.991568
L 64.502282 44.120841
L 64.535346 44.132709
L 64.827994 44.238226
L 65.153705 44.3457
L 65.479416 44.450234
L 65.788084 44.551123
L 65.805128 44.556706
L 66.130839 44.665883
L 66.456551 44.776407
L 66.782262 44.885499
L 67.041713 44.969537
L 67.107973 44.990961
L 67.433685 45.091218
L 67.759396 45.186442
L 68.085107 45.27947
L 68.410819 45.372823
L 68.462924 45.387951
L 68.73653 45.467269
L 69.062242 45.562367
L 69.387953 45.656821
L 69.713664 45.748928
L 69.924781 45.806365
L 70.039376 45.837504
L 70.365087 45.922224
L 70.690799 46.003219
L 71.01651 46.081146
L 71.342221 46.156849
L 71.640903 46.224779
L 71.667933 46.230926
L 71.993644 46.303475
L 72.319355 46.374195
L 72.645067 46.442948
L 72.970778 46.509861
L 73.29649 46.575129
L 73.622201 46.638816
L 73.645178 46.643193
L 73.947912 46.700837
L 74.273624 46.761072
L 74.599335 46.819888
L 74.925046 46.878186
L 75.250758 46.936937
L 75.576469 46.996627
L 75.902181 47.057103
L 75.926242 47.061607
L 76.227892 47.117828
L 76.553603 47.17828
L 76.879315 47.237996
L 77.205026 47.296491
L 77.530738 47.353172
L 77.856449 47.407445
L 78.18216 47.458907
L 78.323489 47.480021
L 78.507872 47.507488
L 78.833583 47.553315
L 79.159294 47.596606
L 79.485006 47.637585
L 79.810717 47.676385
L 80.136429 47.713052
L 80.46214 47.74757
L 80.787851 47.779886
L 81.113563 47.809937
L 81.439274 47.83768
L 81.764986 47.863105
L 82.090697 47.886196
L 82.282546 47.898435
L 82.416408 47.906943
z
M 59.2909 42.126507
L 59.576193 42.040639
L 59.2909 41.954772
L 59.118777 42.040639
L 59.2909 42.126507
z
M 32.582567 26.282857
L 32.908278 26.354312
L 33.187144 26.140909
L 33.23399 26.047066
L 33.340641 25.722496
L 33.363728 25.304082
L 33.338528 24.885668
L 33.280741 24.467254
L 33.23399 24.192632
L 33.208836 24.04884
L 33.115155 23.630426
L 33.003345 23.212012
L 32.908278 22.878089
L 32.88657 22.793598
L 32.758292 22.375184
L 32.635969 21.95677
L 32.582567 21.801811
L 32.47408 21.538356
L 32.31317 21.119942
L 32.256855 20.979461
L 32.148978 20.701528
L 31.964008 20.283114
L 31.931144 20.216096
L 31.764623 19.8647
L 31.605433 19.523675
L 31.565083 19.446286
L 31.333433 19.027872
L 31.279721 18.936535
L 31.071806 18.609458
L 30.95401 18.418241
L 30.82541 18.191044
L 30.628298 17.871699
L 30.565169 17.772631
L 30.302587 17.375033
L 30.287412 17.354217
L 29.988545 16.935803
L 29.976876 16.920676
L 29.651164 16.52476
L 29.645395 16.517389
L 29.325453 16.111277
L 29.3149 16.098975
L 28.999742 15.738248
L 28.943433 15.680561
L 28.67403 15.405241
L 28.514775 15.262147
L 28.348319 15.121076
L 28.036954 14.843733
L 28.022607 14.831309
L 27.696896 14.567692
L 27.44889 14.425319
L 27.371185 14.384021
L 27.045473 14.236938
L 26.719762 14.114829
L 26.401804 14.006905
L 26.39405 14.004453
L 26.068339 13.918783
L 25.742628 13.958898
L 25.635144 14.006905
L 25.416916 14.146698
L 25.159874 14.425319
L 25.091205 14.768069
L 25.079209 14.843733
L 25.091205 14.889966
L 25.166659 15.262147
L 25.262466 15.680561
L 25.407314 16.098975
L 25.416916 16.119541
L 25.61288 16.517389
L 25.742628 16.811235
L 25.793322 16.935803
L 25.982187 17.354217
L 26.068339 17.523711
L 26.207681 17.772631
L 26.39405 18.125894
L 26.428763 18.191044
L 26.660574 18.609458
L 26.719762 18.713061
L 26.925998 19.027872
L 27.045473 19.216981
L 27.202196 19.446286
L 27.371185 19.698686
L 27.486038 19.8647
L 27.696896 20.179928
L 27.766637 20.283114
L 28.022607 20.671183
L 28.043519 20.701528
L 28.332397 21.119942
L 28.348319 21.143355
L 28.632589 21.538356
L 28.67403 21.59788
L 28.92934 21.95677
L 28.999742 22.058337
L 29.232835 22.375184
L 29.325453 22.502313
L 29.555347 22.793598
L 29.651164 22.919967
L 29.870534 23.212012
L 29.976876 23.355019
L 30.193279 23.630426
L 30.302587 23.780775
L 30.496641 24.04884
L 30.628298 24.232376
L 30.798781 24.467254
L 30.95401 24.686194
L 31.12387 24.885668
L 31.279721 25.074245
L 31.501061 25.304082
L 31.605433 25.419672
L 31.894451 25.722496
L 31.931144 25.760021
L 32.256855 26.04918
L 32.385907 26.140909
L 32.582567 26.282857
z
" clip-path="url(#p16fd1f27c9)" style="fill: none; stroke: #ff87ff; stroke-width: 0.65"/>
   </g>
   <g id="QuadContourSet_4">
    <path d="M 38.771083 51.287583
L 38.539337 51.245746
L 38.445372 51.224038
L 38.11966 50.903413
L 38.086159 50.827332
L 37.955111 50.408918
L 37.873139 49.990504
L 37.817615 49.572091
L 37.799452 49.153677
L 37.793949 48.753735
L 37.793757 48.735263
L 37.785385 48.316849
L 37.777495 47.898435
L 37.782222 47.480021
L 37.792725 47.061607
L 37.793949 47.0264
L 37.808089 46.643193
L 37.820724 46.224779
L 37.829104 45.806365
L 37.83637 45.387951
L 37.847008 44.969537
L 37.854194 44.551123
L 37.853774 44.132709
L 37.852863 43.714295
L 37.845904 43.295881
L 37.833978 42.877467
L 37.81259 42.459053
L 37.793949 42.277559
L 37.774897 42.040639
L 37.793949 41.80372
L 37.81259 41.622226
L 37.833978 41.203812
L 37.845904 40.785398
L 37.852863 40.366984
L 37.853774 39.94857
L 37.854194 39.530156
L 37.847008 39.111742
L 37.83637 38.693328
L 37.829104 38.274914
L 37.820724 37.8565
L 37.808089 37.438086
L 37.793949 37.054879
L 37.792725 37.019672
L 37.782222 36.601258
L 37.777495 36.182844
L 37.785385 35.76443
L 37.793757 35.346016
L 37.793949 35.327544
L 37.799452 34.927602
L 37.817615 34.509188
L 37.873139 34.090774
L 37.955111 33.672361
L 38.086159 33.253947
L 38.11966 33.177866
L 38.445372 32.857241
L 38.539337 32.835533
L 38.771083 32.793696
L 38.960839 32.835533
L 39.096794 32.864524
L 39.422506 32.977528
L 39.748217 33.088009
L 40.073929 33.210361
L 40.174908 33.253947
L 40.39964 33.349626
L 40.725351 33.502687
L 41.039631 33.672361
L 41.051063 33.678436
L 41.376774 33.860271
L 41.702485 34.050416
L 41.768775 34.090774
L 42.028197 34.251151
L 42.353908 34.454789
L 42.441057 34.509188
L 42.67962 34.659731
L 43.005331 34.865918
L 43.102937 34.927602
L 43.331042 35.073264
L 43.656754 35.28126
L 43.758661 35.346016
L 43.982465 35.489633
L 44.308177 35.697937
L 44.412843 35.76443
L 44.633888 35.906127
L 44.959599 36.114048
L 45.068044 36.182844
L 45.285311 36.321877
L 45.611022 36.529544
L 45.724265 36.601258
L 45.936733 36.737041
L 46.262445 36.94388
L 46.383236 37.019672
L 46.588156 37.14947
L 46.913868 37.352667
L 47.053691 37.438086
L 47.239579 37.552528
L 47.56529 37.748362
L 47.748979 37.8565
L 47.891002 37.940495
L 48.216713 38.130014
L 48.468476 38.274914
L 48.542424 38.317687
L 48.868136 38.503436
L 49.193847 38.68629
L 49.206567 38.693328
L 49.519559 38.86686
L 49.84527 39.046372
L 49.963372 39.111742
L 50.170981 39.226797
L 50.496693 39.410799
L 50.701977 39.530156
L 50.822404 39.600837
L 51.148116 39.795343
L 51.408868 39.94857
L 51.473827 39.987232
L 51.799538 40.173769
L 52.12525 40.35331
L 52.152545 40.366984
L 52.450961 40.516304
L 52.776672 40.664444
L 53.031089 40.785398
L 53.102384 40.819421
L 53.428095 40.972135
L 53.753807 41.138345
L 53.874796 41.203812
L 54.079518 41.318861
L 54.405229 41.473523
L 54.664119 41.622226
L 54.730941 41.659704
L 55.056652 41.949448
L 55.382364 41.996594
L 55.639853 42.040639
L 55.382364 42.084685
L 55.056652 42.131831
L 54.730941 42.421575
L 54.664119 42.459053
L 54.405229 42.607756
L 54.079518 42.762418
L 53.874796 42.877467
L 53.753807 42.942934
L 53.428095 43.109144
L 53.102384 43.261858
L 53.031089 43.295881
L 52.776672 43.416835
L 52.450961 43.564975
L 52.152545 43.714295
L 52.12525 43.727969
L 51.799538 43.90751
L 51.473827 44.094047
L 51.408868 44.132709
L 51.148116 44.285936
L 50.822404 44.480442
L 50.701977 44.551123
L 50.496693 44.67048
L 50.170981 44.854482
L 49.963372 44.969537
L 49.84527 45.034907
L 49.519559 45.214419
L 49.206567 45.387951
L 49.193847 45.394989
L 48.868136 45.577843
L 48.542424 45.763592
L 48.468476 45.806365
L 48.216713 45.951265
L 47.891002 46.140784
L 47.748979 46.224779
L 47.56529 46.332917
L 47.239579 46.528751
L 47.053691 46.643193
L 46.913868 46.728612
L 46.588156 46.931809
L 46.383236 47.061607
L 46.262445 47.137399
L 45.936733 47.344238
L 45.724265 47.480021
L 45.611022 47.551735
L 45.285311 47.759402
L 45.068044 47.898435
L 44.959599 47.967231
L 44.633888 48.175152
L 44.412843 48.316849
L 44.308177 48.383342
L 43.982465 48.591646
L 43.758661 48.735263
L 43.656754 48.800019
L 43.331042 49.008015
L 43.102937 49.153677
L 43.005331 49.215361
L 42.67962 49.421548
L 42.441057 49.572091
L 42.353908 49.62649
L 42.028197 49.830128
L 41.768775 49.990504
L 41.702485 50.030863
L 41.376774 50.221008
L 41.051063 50.402843
L 41.039631 50.408918
L 40.725351 50.578592
L 40.39964 50.731653
L 40.174908 50.827332
L 40.073929 50.870918
L 39.748217 50.99327
L 39.422506 51.103751
L 39.096794 51.216755
L 38.960839 51.245746
L 38.771083 51.287583
z
" clip-path="url(#p16fd1f27c9)" style="fill: none; stroke: #ff87ff; stroke-width: 0.65"/>
   </g>
   <g id="QuadContourSet_5">
    <path d="M 82.74212 46.649402
L 83.067831 46.66331
L 83.393542 46.67204
L 83.719254 46.675261
L 84.044965 46.673981
L 84.370677 46.669867
L 84.696388 46.66422
L 85.022099 46.657444
L 85.347811 46.649286
L 85.550445 46.643193
L 85.673522 46.639516
L 85.999234 46.628384
L 86.324945 46.616319
L 86.650656 46.603237
L 86.976368 46.588234
L 87.302079 46.569901
L 87.62779 46.546989
L 87.953502 46.518998
L 88.279213 46.486228
L 88.604925 46.449055
L 88.930636 46.40715
L 89.256347 46.359597
L 89.582059 46.305601
L 89.90777 46.245154
L 90.008314 46.224779
L 90.233481 46.179425
L 90.559193 46.110047
L 90.884904 46.038499
L 91.210616 45.96561
L 91.536327 45.892056
L 91.862038 45.818741
L 91.917067 45.806365
L 92.18775 45.746257
L 92.513461 45.673849
L 92.839173 45.59898
L 93.164884 45.51909
L 93.490595 45.433713
L 93.654991 45.387951
L 93.816307 45.343779
L 94.142018 45.249283
L 94.467729 45.148595
L 94.793441 45.04034
L 94.991303 44.969537
L 95.119152 44.924722
L 95.444864 44.80005
L 95.770575 44.660291
L 95.999463 44.551123
L 96.096286 44.505371
L 96.421998 44.341675
L 96.747709 44.170584
L 96.815707 44.132709
L 97.073421 43.990822
L 97.399132 43.804758
L 97.555517 43.714295
L 97.724843 43.618497
L 98.050555 43.424987
L 98.248358 43.295881
L 98.376266 43.210445
L 98.701977 43.024573
L 98.956797 42.877467
L 99.027689 42.837053
L 99.3534 42.649735
L 99.625809 42.459053
L 99.679112 42.421858
L 100.004823 42.159051
L 100.190355 42.040639
L 100.004823 41.922228
L 99.679112 41.659421
L 99.625809 41.622226
L 99.3534 41.431544
L 99.027689 41.244226
L 98.956797 41.203812
L 98.701977 41.056706
L 98.376266 40.870834
L 98.248358 40.785398
L 98.050555 40.656292
L 97.724843 40.462782
L 97.555517 40.366984
L 97.399132 40.276521
L 97.073421 40.090457
L 96.815707 39.94857
L 96.747709 39.910694
L 96.421998 39.739604
L 96.096286 39.575908
L 95.999463 39.530156
L 95.770575 39.420988
L 95.444864 39.281229
L 95.119152 39.156557
L 94.991303 39.111742
L 94.793441 39.040939
L 94.467729 38.932684
L 94.142018 38.831996
L 93.816307 38.7375
L 93.654991 38.693328
L 93.490595 38.647566
L 93.164884 38.562189
L 92.839173 38.482299
L 92.513461 38.40743
L 92.18775 38.335022
L 91.917067 38.274914
L 91.862038 38.262538
L 91.536327 38.189223
L 91.210616 38.115669
L 90.884904 38.04278
L 90.559193 37.971232
L 90.233481 37.901854
L 90.008314 37.8565
L 89.90777 37.836125
L 89.582059 37.775678
L 89.256347 37.721682
L 88.930636 37.674129
L 88.604925 37.632224
L 88.279213 37.595051
L 87.953502 37.562281
L 87.62779 37.53429
L 87.302079 37.511377
L 86.976368 37.493045
L 86.650656 37.478042
L 86.324945 37.46496
L 85.999234 37.452895
L 85.673522 37.441763
L 85.550445 37.438086
L 85.347811 37.431993
L 85.022099 37.423835
L 84.696388 37.417059
L 84.370677 37.411412
L 84.044965 37.407298
L 83.719254 37.406018
L 83.393542 37.409239
L 83.067831 37.417968
L 82.74212 37.431877
L 82.62694 37.438086
L 82.416408 37.449517
L 82.090697 37.469154
L 81.764986 37.48933
L 81.439274 37.509043
L 81.113563 37.527711
L 80.787851 37.545124
L 80.46214 37.561435
L 80.136429 37.577301
L 79.810717 37.594038
L 79.485006 37.61329
L 79.159294 37.636298
L 78.833583 37.663579
L 78.507872 37.69524
L 78.18216 37.731343
L 77.856449 37.771938
L 77.530738 37.816946
L 77.267984 37.8565
L 77.205026 37.866012
L 76.879315 37.918272
L 76.553603 37.972327
L 76.227892 38.026607
L 75.902181 38.080558
L 75.576469 38.135024
L 75.250758 38.191394
L 74.925046 38.251255
L 74.807722 38.274914
L 74.599335 38.316799
L 74.273624 38.390671
L 73.947912 38.474527
L 73.622201 38.567889
L 73.29649 38.668172
L 73.215737 38.693328
L 72.970778 38.770838
L 72.645067 38.870258
L 72.319355 38.961892
L 71.993644 39.043647
L 71.684943 39.111742
L 71.667933 39.1155
L 71.342221 39.1789
L 71.01651 39.233899
L 70.690799 39.281578
L 70.365087 39.327245
L 70.039376 39.379144
L 69.713664 39.445482
L 69.395728 39.530156
L 69.387953 39.532214
L 69.062242 39.639934
L 68.73653 39.763552
L 68.410819 39.888072
L 68.234882 39.94857
L 68.085107 40.000736
L 67.759396 40.095245
L 67.433685 40.18229
L 67.107973 40.289031
L 66.921389 40.366984
L 66.782262 40.427203
L 66.456551 40.567706
L 66.130839 40.663115
L 65.805128 40.734471
L 65.628309 40.785398
L 65.479416 40.827957
L 65.153705 40.94032
L 64.827994 41.069072
L 64.502282 41.138351
L 64.176571 41.196722
L 64.156453 41.203812
L 63.850859 41.316371
L 63.525148 41.418189
L 63.199437 41.485335
L 62.873725 41.573552
L 62.796519 41.622226
L 62.548014 41.83365
L 62.222303 41.877
L 61.977009 42.040639
L 62.222303 42.204279
L 62.548014 42.247629
L 62.796519 42.459053
L 62.873725 42.507727
L 63.199437 42.595944
L 63.525148 42.66309
L 63.850859 42.764908
L 64.156453 42.877467
L 64.176571 42.884557
L 64.502282 42.942928
L 64.827994 43.012207
L 65.153705 43.140959
L 65.479416 43.253322
L 65.628309 43.295881
L 65.805128 43.346808
L 66.130839 43.418164
L 66.456551 43.513573
L 66.782262 43.654076
L 66.921389 43.714295
L 67.107973 43.792248
L 67.433685 43.898989
L 67.759396 43.986034
L 68.085107 44.080543
L 68.234882 44.132709
L 68.410819 44.193206
L 68.73653 44.317727
L 69.062242 44.441345
L 69.387953 44.549065
L 69.395728 44.551123
L 69.713664 44.635797
L 70.039376 44.702135
L 70.365087 44.754034
L 70.690799 44.799701
L 71.01651 44.84738
L 71.342221 44.902379
L 71.667933 44.965779
L 71.684943 44.969537
L 71.993644 45.037632
L 72.319355 45.119387
L 72.645067 45.211021
L 72.970778 45.310441
L 73.215737 45.387951
L 73.29649 45.413107
L 73.622201 45.51339
L 73.947912 45.606752
L 74.273624 45.690608
L 74.599335 45.76448
L 74.807722 45.806365
L 74.925046 45.830024
L 75.250758 45.889885
L 75.576469 45.946255
L 75.902181 46.000721
L 76.227892 46.054672
L 76.553603 46.108952
L 76.879315 46.163007
L 77.205026 46.215267
L 77.267984 46.224779
L 77.530738 46.264333
L 77.856449 46.309341
L 78.18216 46.349936
L 78.507872 46.386039
L 78.833583 46.4177
L 79.159294 46.444981
L 79.485006 46.467989
L 79.810717 46.487241
L 80.136429 46.503978
L 80.46214 46.519844
L 80.787851 46.536155
L 81.113563 46.553568
L 81.439274 46.572236
L 81.764986 46.591949
L 82.090697 46.612125
L 82.416408 46.631762
L 82.62694 46.643193
L 82.74212 46.649402
z
" clip-path="url(#p16fd1f27c9)" style="fill: none; stroke: #ff58ff; stroke-width: 0.65"/>
   </g>
   <g id="QuadContourSet_6">
    <path d="M 41.376774 47.945443
L 40.856009 47.480021
L 40.39964 46.809608
L 40.073929 45.714293
L 39.730834 43.714295
L 39.607002 41.622226
L 39.925566 39.111742
L 40.334564 37.438086
L 40.544157 37.019672
L 41.051063 36.387587
L 41.376774 36.135836
L 42.028197 36.020337
L 43.331042 36.217253
L 44.633888 36.749853
L 51.799538 40.92422
L 54.208545 42.040639
L 54.079518 42.180036
L 50.822404 43.643309
L 48.542424 44.934938
L 43.982465 47.607281
L 43.005331 47.938618
L 41.702485 48.053124
L 41.376774 47.945443
L 41.376774 47.945443
" clip-path="url(#p16fd1f27c9)" style="fill: none; stroke: #ff58ff; stroke-width: 0.65"/>
   </g>
   <g id="QuadContourSet_7">
    <path d="M 80.136429 44.555231
L 80.46214 44.623421
L 80.787851 44.663686
L 81.113563 44.675064
L 81.439274 44.666661
L 81.764986 44.652585
L 82.090697 44.643445
L 82.416408 44.642832
L 82.74212 44.650152
L 83.067831 44.663707
L 83.393542 44.680088
L 83.719254 44.694855
L 84.044965 44.706512
L 84.370677 44.716206
L 84.696388 44.724277
L 85.022099 44.730305
L 85.347811 44.735024
L 85.673522 44.740775
L 85.999234 44.748637
L 86.324945 44.755371
L 86.650656 44.755065
L 86.976368 44.7437
L 87.302079 44.723269
L 87.62779 44.700219
L 87.953502 44.67815
L 88.279213 44.6512
L 88.604925 44.607299
L 88.877132 44.551123
L 88.930636 44.540081
L 89.256347 44.455517
L 89.582059 44.367211
L 89.90777 44.290393
L 90.233481 44.238653
L 90.559193 44.212201
L 90.884904 44.196896
L 91.210616 44.176488
L 91.536327 44.150647
L 91.746084 44.132709
L 91.862038 44.123074
L 92.18775 44.087306
L 92.513461 44.033434
L 92.839173 43.951803
L 93.164884 43.842239
L 93.490595 43.718339
L 93.50067 43.714295
L 93.816307 43.586708
L 94.142018 43.462015
L 94.467729 43.339476
L 94.569522 43.295881
L 94.793441 43.200453
L 95.119152 43.055596
L 95.444864 42.886415
L 95.460002 42.877467
L 95.770575 42.681065
L 96.096286 42.533581
L 96.421998 42.508514
L 96.507703 42.459053
L 96.747709 42.328401
L 97.073421 42.093861
L 97.14323 42.040639
L 97.073421 41.987418
L 96.747709 41.752878
L 96.507703 41.622226
L 96.421998 41.572765
L 96.096286 41.547698
L 95.770575 41.400214
L 95.460002 41.203812
L 95.444864 41.194864
L 95.119152 41.025683
L 94.793441 40.880826
L 94.569522 40.785398
L 94.467729 40.741803
L 94.142018 40.619264
L 93.816307 40.494571
L 93.50067 40.366984
L 93.490595 40.36294
L 93.164884 40.23904
L 92.839173 40.129476
L 92.513461 40.047844
L 92.18775 39.993973
L 91.862038 39.958205
L 91.746084 39.94857
L 91.536327 39.930632
L 91.210616 39.904791
L 90.884904 39.884383
L 90.559193 39.869078
L 90.233481 39.842626
L 89.90777 39.790886
L 89.582059 39.714067
L 89.256347 39.625762
L 88.930636 39.541198
L 88.877132 39.530156
L 88.604925 39.47398
L 88.279213 39.430079
L 87.953502 39.403129
L 87.62779 39.38106
L 87.302079 39.358009
L 86.976368 39.337579
L 86.650656 39.326214
L 86.324945 39.325908
L 85.999234 39.332642
L 85.673522 39.340504
L 85.347811 39.346255
L 85.022099 39.350974
L 84.696388 39.357002
L 84.370677 39.365073
L 84.044965 39.374767
L 83.719254 39.386424
L 83.393542 39.401191
L 83.067831 39.417572
L 82.74212 39.431127
L 82.416408 39.438447
L 82.090697 39.437834
L 81.764986 39.428694
L 81.439274 39.414618
L 81.113563 39.406215
L 80.787851 39.417593
L 80.46214 39.457858
L 80.136429 39.526048
L 80.120047 39.530156
L 79.810717 39.610369
L 79.485006 39.692086
L 79.159294 39.757481
L 78.833583 39.814751
L 78.507872 39.872752
L 78.18216 39.92261
L 77.904043 39.94857
L 77.856449 39.953036
L 77.530738 39.96602
L 77.205026 39.975271
L 76.879315 39.992928
L 76.553603 40.025005
L 76.227892 40.071322
L 75.902181 40.117542
L 75.576469 40.144362
L 75.250758 40.160167
L 74.925046 40.189544
L 74.599335 40.250382
L 74.273624 40.33413
L 74.149386 40.366984
L 73.947912 40.421308
L 73.622201 40.504817
L 73.29649 40.58717
L 72.970778 40.655276
L 72.645067 40.681681
L 72.319355 40.697236
L 71.993644 40.761711
L 71.915321 40.785398
L 71.667933 40.863351
L 71.342221 40.958367
L 71.01651 41.014082
L 70.690799 41.069689
L 70.365087 41.187411
L 70.300045 41.203812
L 70.039376 41.269108
L 69.713664 41.332392
L 69.387953 41.421759
L 69.062242 41.54154
L 68.862566 41.622226
L 68.73653 41.694053
L 68.410819 41.629903
L 68.358363 41.622226
L 68.085107 41.582073
L 67.759396 41.603955
L 67.703857 41.622226
L 67.433685 41.708403
L 67.107973 41.862028
L 66.782262 42.036592
L 66.557726 42.040639
L 66.782262 42.044687
L 67.107973 42.219251
L 67.433685 42.372876
L 67.703857 42.459053
L 67.759396 42.477324
L 68.085107 42.499206
L 68.358363 42.459053
L 68.410819 42.451376
L 68.73653 42.387226
L 68.862566 42.459053
L 69.062242 42.539739
L 69.387953 42.65952
L 69.713664 42.748887
L 70.039376 42.812171
L 70.300045 42.877467
L 70.365087 42.893868
L 70.690799 43.01159
L 71.01651 43.067197
L 71.342221 43.122912
L 71.667933 43.217928
L 71.915321 43.295881
L 71.993644 43.319568
L 72.319355 43.384043
L 72.645067 43.399598
L 72.970778 43.426002
L 73.29649 43.494109
L 73.622201 43.576462
L 73.947912 43.659971
L 74.149386 43.714295
L 74.273624 43.747149
L 74.599335 43.830897
L 74.925046 43.891735
L 75.250758 43.921112
L 75.576469 43.936917
L 75.902181 43.963737
L 76.227892 44.009957
L 76.553603 44.056274
L 76.879315 44.088351
L 77.205026 44.106008
L 77.530738 44.115259
L 77.856449 44.128243
L 77.904043 44.132709
L 78.18216 44.158669
L 78.507872 44.208527
L 78.833583 44.266527
L 79.159294 44.323798
L 79.485006 44.389193
L 79.810717 44.47091
L 80.120047 44.551123
L 80.136429 44.555231
z
" clip-path="url(#p16fd1f27c9)" style="fill: none; stroke: #ff29f1; stroke-width: 0.65"/>
   </g>
   <g id="QuadContourSet_8">
    <path d="M 46.262445 44.20501
L 46.017293 44.132709
L 45.936733 44.107663
L 45.611022 43.997056
L 45.285311 43.925575
L 44.959599 43.823994
L 44.766145 43.714295
L 44.633888 43.613734
L 44.449379 43.295881
L 44.308177 43.081596
L 44.187876 42.877467
L 43.982465 42.501805
L 43.967912 42.459053
L 43.82514 42.040639
L 43.967912 41.622226
L 43.982465 41.579474
L 44.187876 41.203812
L 44.308177 40.999683
L 44.449379 40.785398
L 44.633888 40.467545
L 44.766145 40.366984
L 44.959599 40.257285
L 45.285311 40.155704
L 45.611022 40.084223
L 45.936733 39.973616
L 46.017293 39.94857
L 46.262445 39.876269
L 46.588156 39.817926
L 46.913868 39.796661
L 47.239579 39.789932
L 47.56529 39.798812
L 47.891002 39.821561
L 48.216713 39.876919
L 48.492807 39.94857
L 48.542424 39.960922
L 48.868136 40.053589
L 49.193847 40.154941
L 49.519559 40.276099
L 49.690337 40.366984
L 49.84527 40.446435
L 50.170981 40.629935
L 50.435789 40.785398
L 50.496693 40.822612
L 50.822404 40.986649
L 51.148116 41.156488
L 51.226702 41.203812
L 51.473827 41.353745
L 51.799538 41.573625
L 51.845375 41.622226
L 52.12525 41.977173
L 52.184864 42.040639
L 52.12525 42.104106
L 51.845375 42.459053
L 51.799538 42.507654
L 51.473827 42.727534
L 51.226702 42.877467
L 51.148116 42.924791
L 50.822404 43.09463
L 50.496693 43.258666
L 50.435789 43.295881
L 50.170981 43.451344
L 49.84527 43.634844
L 49.690337 43.714295
L 49.519559 43.80518
L 49.193847 43.926338
L 48.868136 44.02769
L 48.542424 44.120357
L 48.492807 44.132709
L 48.216713 44.20436
L 47.891002 44.259718
L 47.56529 44.282467
L 47.239579 44.291347
L 46.913868 44.284618
L 46.588156 44.263353
L 46.262445 44.20501
" clip-path="url(#p16fd1f27c9)" style="fill: none; stroke: #ff29f1; stroke-width: 0.65"/>
   </g>
   <g id="QuadContourSet_9">
    <path d="M 80.136429 42.522236
L 80.46214 42.496486
L 80.649965 42.459053
L 80.787851 42.424704
L 80.881508 42.459053
L 81.113563 42.527897
L 81.439274 42.55879
L 81.764986 42.585615
L 82.090697 42.573127
L 82.416408 42.581169
L 82.74212 42.608456
L 83.067831 42.524849
L 83.393542 42.520837
L 83.719254 42.467153
L 83.738017 42.459053
L 84.044965 42.317531
L 84.370677 42.203202
L 84.696388 42.234934
L 85.022099 42.418527
L 85.229424 42.459053
L 85.347811 42.480855
L 85.488634 42.459053
L 85.673522 42.426747
L 85.999234 42.235527
L 86.324945 42.3024
L 86.650656 42.174284
L 86.976368 42.175986
L 87.302079 42.210666
L 87.62779 42.230817
L 87.902633 42.040639
L 87.62779 41.850462
L 87.302079 41.870613
L 86.976368 41.905293
L 86.650656 41.906995
L 86.324945 41.778879
L 85.999234 41.845752
L 85.673522 41.654532
L 85.488634 41.622226
L 85.347811 41.600424
L 85.229424 41.622226
L 85.022099 41.662752
L 84.696388 41.846345
L 84.370677 41.878077
L 84.044965 41.763748
L 83.738017 41.622226
L 83.719254 41.614126
L 83.393542 41.560442
L 83.067831 41.55643
L 82.74212 41.472823
L 82.416408 41.50011
L 82.090697 41.508152
L 81.764986 41.495664
L 81.439274 41.522488
L 81.113563 41.553382
L 80.881508 41.622226
L 80.787851 41.656575
L 80.649965 41.622226
L 80.46214 41.584793
L 80.136429 41.559043
L 80.013011 41.622226
L 79.810717 41.753929
L 79.485006 41.971153
L 79.159294 41.888057
L 78.841517 42.040639
L 79.159294 42.193222
L 79.485006 42.110125
L 79.810717 42.32735
L 80.013011 42.459053
L 80.136429 42.522236
z
M 76.553603 42.170734
L 76.879315 42.151029
L 77.205026 42.051007
L 77.530738 42.167612
L 77.709203 42.040639
L 77.530738 41.913667
L 77.205026 42.030272
L 76.879315 41.93025
L 76.553603 41.910545
L 76.381356 42.040639
L 76.553603 42.170734
z
" clip-path="url(#p16fd1f27c9)" style="fill: none; stroke: #e600d7; stroke-width: 0.65"/>
   </g>
   <g id="patch_3">
    <path d="M 17.599843 79.697895
L 17.599843 4.383384
" style="fill: none; stroke: #000000; stroke-width: 0.45; stroke-linejoin: miter; stroke-linecap: square"/>
   </g>
   <g id="patch_4">
    <path d="M 108.79903 79.697895
L 108.79903 4.383384
" style="fill: none; stroke: #000000; stroke-width: 0.45; stroke-linejoin: miter; stroke-linecap: square"/>
   </g>
   <g id="patch_5">
    <path d="M 17.599843 79.697895
L 108.79903 79.697895
" style="fill: none; stroke: #000000; stroke-width: 0.45; stroke-linejoin: miter; stroke-linecap: square"/>
   </g>
   <g id="patch_6">
    <path d="M 17.599843 4.383384
L 108.79903 4.383384
" style="fill: none; stroke: #000000; stroke-width: 0.45; stroke-linejoin: miter; stroke-linecap: square"/>
   </g>
  </g>
  <g id="axes_2">
   <g id="patch_7">
    <path d="M 131.598827 79.697895
L 222.798014 79.697895
L 222.798014 4.383384
L 131.598827 4.383384
z
" style="fill: #ffffff"/>
   </g>
   <g id="matplotlib.axis_3">
    <g id="xtick_5">
     <g id="line2d_15">
      <g>
       <use xlink:href="#m54b71f200b" x="131.598827" y="79.697895" style="stroke: #000000; stroke-width: 0.45"/>
      </g>
     </g>
     <g id="line2d_16">
      <g>
       <use xlink:href="#m76d126def9" x="131.598827" y="4.383384" style="stroke: #000000; stroke-width: 0.45"/>
      </g>
     </g>
     <g id="text_10">
      <text style="font-size: 8px; font-family: 'Times New Roman', 'Times', 'DejaVu Serif', serif; text-anchor: middle" x="131.598827" y="86.752895" transform="rotate(-0 131.598827 86.752895)">0</text>
     </g>
    </g>
    <g id="xtick_6">
     <g id="line2d_17">
      <g>
       <use xlink:href="#m54b71f200b" x="161.998556" y="79.697895" style="stroke: #000000; stroke-width: 0.45"/>
      </g>
     </g>
     <g id="line2d_18">
      <g>
       <use xlink:href="#m76d126def9" x="161.998556" y="4.383384" style="stroke: #000000; stroke-width: 0.45"/>
      </g>
     </g>
     <g id="text_11">
      <text style="font-size: 8px; font-family: 'Times New Roman', 'Times', 'DejaVu Serif', serif; text-anchor: middle" x="161.998556" y="86.752895" transform="rotate(-0 161.998556 86.752895)">1</text>
     </g>
    </g>
    <g id="xtick_7">
     <g id="line2d_19">
      <g>
       <use xlink:href="#m54b71f200b" x="192.398285" y="79.697895" style="stroke: #000000; stroke-width: 0.45"/>
      </g>
     </g>
     <g id="line2d_20">
      <g>
       <use xlink:href="#m76d126def9" x="192.398285" y="4.383384" style="stroke: #000000; stroke-width: 0.45"/>
      </g>
     </g>
     <g id="text_12">
      <text style="font-size: 8px; font-family: 'Times New Roman', 'Times', 'DejaVu Serif', serif; text-anchor: middle" x="192.398285" y="86.752895" transform="rotate(-0 192.398285 86.752895)">2</text>
     </g>
    </g>
    <g id="xtick_8">
     <g id="line2d_21">
      <g>
       <use xlink:href="#m54b71f200b" x="222.798014" y="79.697895" style="stroke: #000000; stroke-width: 0.45"/>
      </g>
     </g>
     <g id="line2d_22">
      <g>
       <use xlink:href="#m76d126def9" x="222.798014" y="4.383384" style="stroke: #000000; stroke-width: 0.45"/>
      </g>
     </g>
     <g id="text_13">
      <text style="font-size: 8px; font-family: 'Times New Roman', 'Times', 'DejaVu Serif', serif; text-anchor: middle" x="222.798014" y="86.752895" transform="rotate(-0 222.798014 86.752895)">3</text>
     </g>
    </g>
    <g id="text_14">
     <!-- $W$ -->
     <g transform="translate(172.998421 96.407895)">
      <text>
       <tspan x="0" y="-0.46875" style="font-style: italic; font-size: 10px; font-family: 'STIXGeneral'">W</tspan>
      </text>
     </g>
    </g>
   </g>
   <g id="matplotlib.axis_4">
    <g id="ytick_4">
     <g id="line2d_23">
      <g>
       <use xlink:href="#mcdccaf904b" x="131.598827" y="79.697895" style="stroke: #000000; stroke-width: 0.45"/>
      </g>
     </g>
     <g id="line2d_24">
      <g>
       <use xlink:href="#m5c14d8edc2" x="222.798014" y="79.697895" style="stroke: #000000; stroke-width: 0.45"/>
      </g>
     </g>
     <g id="text_15">
      <text style="font-size: 8px; font-family: 'Times New Roman', 'Times', 'DejaVu Serif', serif; text-anchor: end" x="130.098827" y="82.475395" transform="rotate(-0 130.098827 82.475395)">0</text>
     </g>
    </g>
    <g id="ytick_5">
     <g id="line2d_25">
      <g>
       <use xlink:href="#mcdccaf904b" x="131.598827" y="4.383384" style="stroke: #000000; stroke-width: 0.45"/>
      </g>
     </g>
     <g id="line2d_26">
      <g>
       <use xlink:href="#m5c14d8edc2" x="222.798014" y="4.383384" style="stroke: #000000; stroke-width: 0.45"/>
      </g>
     </g>
     <g id="text_16">
      <text style="font-size: 8px; font-family: 'Times New Roman', 'Times', 'DejaVu Serif', serif; text-anchor: end" x="130.098827" y="7.160884" transform="rotate(-0 130.098827 7.160884)">1</text>
     </g>
    </g>
    <g id="text_17">
     <!-- $\alpha$ -->
     <g transform="translate(119.678908 39.901577)">
      <text>
       <tspan x="0" y="-0.59375" style="font-style: italic; font-size: 10px; font-family: 'STIXGeneral'">α</tspan>
      </text>
     </g>
    </g>
   </g>
   <g id="line2d_27">
    <path d="M 131.598827 79.697895
L 134.6388 79.49078
L 137.678773 77.852689
L 140.718746 75.508525
L 143.758719 72.382973
L 146.798692 67.977074
L 149.838665 62.940416
L 152.878637 57.310656
L 155.91861 52.302242
L 158.958583 43.490444
L 161.998556 36.778038
L 165.038529 31.788452
L 168.078502 29.641988
L 171.118475 28.455785
L 174.158448 25.942163
L 177.198421 24.162858
L 180.238394 22.769539
L 183.278366 18.900256
L 186.318339 16.414877
L 189.358312 14.343728
L 192.398285 9.843686
L 195.438258 5.324816
L 198.478231 5.305987
L 201.518204 4.383384
L 204.558177 4.383384
L 207.59815 4.383384
L 210.638123 4.383384
L 213.678096 4.383384
L 216.718068 4.383384
L 219.758041 4.383384
L 222.798014 4.383384
" clip-path="url(#pa4f6a5f92b)" style="fill: none; stroke: #000000; stroke-width: 0.65; stroke-linecap: square"/>
    <defs>
     <path id="m68436fe01b" d="M 0 0.9
C 0.238683 0.9 0.467622 0.80517 0.636396 0.636396
C 0.80517 0.467622 0.9 0.238683 0.9 0
C 0.9 -0.238683 0.80517 -0.467622 0.636396 -0.636396
C 0.467622 -0.80517 0.238683 -0.9 0 -0.9
C -0.238683 -0.9 -0.467622 -0.80517 -0.636396 -0.636396
C -0.80517 -0.467622 -0.9 -0.238683 -0.9 0
C -0.9 0.238683 -0.80517 0.467622 -0.636396 0.636396
C -0.467622 0.80517 -0.238683 0.9 0 0.9
z
" style="stroke: #000000"/>
    </defs>
    <g clip-path="url(#pa4f6a5f92b)">
     <use xlink:href="#m68436fe01b" x="131.598827" y="79.697895" style="stroke: #000000"/>
     <use xlink:href="#m68436fe01b" x="134.6388" y="79.49078" style="stroke: #000000"/>
     <use xlink:href="#m68436fe01b" x="137.678773" y="77.852689" style="stroke: #000000"/>
     <use xlink:href="#m68436fe01b" x="140.718746" y="75.508525" style="stroke: #000000"/>
     <use xlink:href="#m68436fe01b" x="143.758719" y="72.382973" style="stroke: #000000"/>
     <use xlink:href="#m68436fe01b" x="146.798692" y="67.977074" style="stroke: #000000"/>
     <use xlink:href="#m68436fe01b" x="149.838665" y="62.940416" style="stroke: #000000"/>
     <use xlink:href="#m68436fe01b" x="152.878637" y="57.310656" style="stroke: #000000"/>
     <use xlink:href="#m68436fe01b" x="155.91861" y="52.302242" style="stroke: #000000"/>
     <use xlink:href="#m68436fe01b" x="158.958583" y="43.490444" style="stroke: #000000"/>
     <use xlink:href="#m68436fe01b" x="161.998556" y="36.778038" style="stroke: #000000"/>
     <use xlink:href="#m68436fe01b" x="165.038529" y="31.788452" style="stroke: #000000"/>
     <use xlink:href="#m68436fe01b" x="168.078502" y="29.641988" style="stroke: #000000"/>
     <use xlink:href="#m68436fe01b" x="171.118475" y="28.455785" style="stroke: #000000"/>
     <use xlink:href="#m68436fe01b" x="174.158448" y="25.942163" style="stroke: #000000"/>
     <use xlink:href="#m68436fe01b" x="177.198421" y="24.162858" style="stroke: #000000"/>
     <use xlink:href="#m68436fe01b" x="180.238394" y="22.769539" style="stroke: #000000"/>
     <use xlink:href="#m68436fe01b" x="183.278366" y="18.900256" style="stroke: #000000"/>
     <use xlink:href="#m68436fe01b" x="186.318339" y="16.414877" style="stroke: #000000"/>
     <use xlink:href="#m68436fe01b" x="189.358312" y="14.343728" style="stroke: #000000"/>
     <use xlink:href="#m68436fe01b" x="192.398285" y="9.843686" style="stroke: #000000"/>
     <use xlink:href="#m68436fe01b" x="195.438258" y="5.324816" style="stroke: #000000"/>
     <use xlink:href="#m68436fe01b" x="198.478231" y="5.305987" style="stroke: #000000"/>
     <use xlink:href="#m68436fe01b" x="201.518204" y="4.383384" style="stroke: #000000"/>
     <use xlink:href="#m68436fe01b" x="204.558177" y="4.383384" style="stroke: #000000"/>
     <use xlink:href="#m68436fe01b" x="207.59815" y="4.383384" style="stroke: #000000"/>
     <use xlink:href="#m68436fe01b" x="210.638123" y="4.383384" style="stroke: #000000"/>
     <use xlink:href="#m68436fe01b" x="213.678096" y="4.383384" style="stroke: #000000"/>
     <use xlink:href="#m68436fe01b" x="216.718068" y="4.383384" style="stroke: #000000"/>
     <use xlink:href="#m68436fe01b" x="219.758041" y="4.383384" style="stroke: #000000"/>
     <use xlink:href="#m68436fe01b" x="222.798014" y="4.383384" style="stroke: #000000"/>
    </g>
   </g>
   <g id="line2d_28">
    <path d="M 195.438258 79.697895
L 195.438258 4.383384
" clip-path="url(#pa4f6a5f92b)" style="fill: none; stroke-dasharray: 0.845,0.845; stroke-dashoffset: 0; stroke: #8a8a8a; stroke-width: 0.65"/>
   </g>
   <g id="patch_8">
    <path d="M 131.598827 79.697895
L 131.598827 4.383384
" style="fill: none; stroke: #000000; stroke-width: 0.45; stroke-linejoin: miter; stroke-linecap: square"/>
   </g>
   <g id="patch_9">
    <path d="M 222.798014 79.697895
L 222.798014 4.383384
" style="fill: none; stroke: #000000; stroke-width: 0.45; stroke-linejoin: miter; stroke-linecap: square"/>
   </g>
   <g id="patch_10">
    <path d="M 131.598827 79.697895
L 222.798014 79.697895
" style="fill: none; stroke: #000000; stroke-width: 0.45; stroke-linejoin: miter; stroke-linecap: square"/>
   </g>
   <g id="patch_11">
    <path d="M 131.598827 4.383384
L 222.798014 4.383384
" style="fill: none; stroke: #000000; stroke-width: 0.45; stroke-linejoin: miter; stroke-linecap: square"/>
   </g>
   <g id="text_18">
    <text style="font-weight: 700; font-size: 9px; font-family: 'Times New Roman', 'Times', 'DejaVu Serif', serif; text-anchor: middle" x="160.47857" y="16.433706" transform="rotate(-0 160.47857 16.433706)">Mixed</text>
   </g>
   <g id="text_19">
    <text style="font-weight: 700; font-size: 9px; font-family: 'Times New Roman', 'Times', 'DejaVu Serif', serif; text-anchor: middle" x="209.118136" y="16.433706" transform="rotate(-0 209.118136 16.433706)">AI</text>
   </g>
   <g id="text_20">
    <!-- $W_c$ -->
    <g transform="translate(196.35025 75.727209)">
     <text>
      <tspan x="0" y="-0.78125" style="font-style: italic; font-size: 8px; font-family: 'STIXGeneral'">W</tspan>
      <tspan x="6.663986" y="0.278125" style="font-style: italic; font-size: 5.6px; font-family: 'STIXGeneral'">c</tspan>
     </text>
    </g>
   </g>
  </g>
  <g id="text_21">
   <text style="font-size: 12px; font-family: 'Times New Roman', 'Times', 'DejaVu Serif', serif; text-anchor: start" x="0" y="7.535521" transform="rotate(-0 0 7.535521)">(a)</text>
  </g>
  <g id="text_22">
   <text style="font-size: 12px; font-family: 'Times New Roman', 'Times', 'DejaVu Serif', serif; text-anchor: start" x="112.798995" y="7.535521" transform="rotate(-0 112.798995 7.535521)">(b)</text>
  </g>
 </g>
 <defs>
  <clipPath id="p16fd1f27c9">
   <rect x="17.599843" y="4.383384" width="91.199187" height="75.314511"/>
  </clipPath>
  <clipPath id="pa4f6a5f92b">
   <rect x="131.598827" y="4.383384" width="91.199187" height="75.314511"/>
  </clipPath>
 </defs>
</svg>
